<svg width="37" height="24" viewBox="0 0 37 24" fill="none" xmlns="http://www.w3.org/2000/svg">
<rect x="12.0508" y="0.078125" width="23.9297" height="23.4284" rx="11.7142" fill="#F4EAD7"/>
<rect x="12.0508" y="0.078125" width="23.9297" height="23.4284" rx="11.7142" fill="url(#paint0_linear_120_888)"/>
<path fill-rule="evenodd" clip-rule="evenodd" d="M27.328 4.28633L28.6896 16.3609C28.7066 16.5112 28.5804 16.6252 28.4078 16.6154C28.2353 16.6056 28.0816 16.4757 28.0647 16.3254L26.9035 6.02834C26.8177 6.14701 26.7216 6.27878 26.616 6.42199C26.1245 7.08866 25.4262 8.00371 24.599 8.99731C22.9502 10.9778 20.7698 13.2948 18.683 14.565C14.7361 16.9673 11.4573 18.3948 9.16064 19.2224C8.01237 19.6362 7.10977 19.9 6.49211 20.0607C6.18329 20.1411 5.94571 20.1957 5.78429 20.2304C5.70358 20.2477 5.64191 20.2601 5.59989 20.2682C5.57889 20.2722 5.56279 20.2752 5.55169 20.2773L5.53879 20.2796L5.53516 20.2802L5.53406 20.2804C5.53392 20.2804 5.53343 20.2805 5.42569 20.0125L5.53406 20.2804C5.37118 20.3085 5.19027 20.2113 5.13077 20.0633C5.07129 19.9153 5.15503 19.7726 5.31781 19.7445C5.31786 19.7445 5.31776 19.7445 5.31781 19.7445L5.32017 19.744L5.32993 19.7423L5.37183 19.7344C5.40964 19.7271 5.46708 19.7156 5.54356 19.6992C5.69652 19.6663 5.92561 19.6137 6.22593 19.5356C6.82657 19.3793 7.71219 19.1207 8.84362 18.713C11.1064 17.8975 14.3529 16.4853 18.2697 14.1014C20.2834 12.8757 22.4233 10.6106 24.0698 8.63285C24.8902 7.64735 25.5832 6.73928 26.0711 6.07761C26.315 5.74683 26.5075 5.4778 26.6388 5.29166C26.7045 5.19859 26.755 5.12626 26.7889 5.0773L26.8272 5.02173L26.8368 5.00772L26.8397 5.00344C26.8397 5.00341 26.8399 5.00322 27.117 5.16884L26.8397 5.00344L27.328 4.28633Z" fill="#1E7B9D"/>
<path fill-rule="evenodd" clip-rule="evenodd" d="M32.3462 4.47694L34.03 16.5208C34.052 16.6777 33.9383 16.8166 33.7761 16.8312C33.6139 16.8457 33.4647 16.7303 33.4428 16.5734L31.9527 5.91525C31.8669 6.0203 31.7699 6.13866 31.6632 6.26841C31.2151 6.81287 30.5942 7.55807 29.9028 8.36078C28.5258 9.95953 26.851 11.8083 25.7076 12.7412C23.957 14.1695 20.8052 16.0643 18.5495 17.1686C16.2 18.3187 14.3085 18.9809 11.0388 20.1107C10.8869 20.1632 10.7144 20.0853 10.6534 19.9367C10.5925 19.7882 10.6662 19.6252 10.818 19.5727C14.0903 18.442 15.95 17.7902 18.2634 16.6577C20.4945 15.5656 23.6061 13.6925 25.3136 12.2995C26.4136 11.402 28.0584 9.5901 29.4402 7.98575C30.1282 7.18691 30.7464 6.44495 31.1927 5.90265C31.4158 5.63154 31.5959 5.41043 31.7201 5.25717C31.7822 5.18054 31.8303 5.12088 31.8629 5.08042L31.8999 5.03442L31.9123 5.01895C31.9123 5.01892 31.9123 5.01891 32.1498 5.19896L31.9123 5.01895L32.3462 4.47694Z" fill="#1E7B9D"/>
<defs>
<linearGradient id="paint0_linear_120_888" x1="30.593" y1="5.14579" x2="18.954" y2="15.5797" gradientUnits="userSpaceOnUse">
<stop stop-color="#C2FEF3"/>
<stop offset="0.657397" stop-color="white"/>
<stop offset="1" stop-color="#F9E7CC"/>
</linearGradient>
</defs>
</svg>
