<svg width="146" height="56" viewBox="0 0 146 56" fill="none" xmlns="http://www.w3.org/2000/svg">
<rect x="0.5" y="0.5" width="145" height="55" rx="16.0707" fill="#FCFFFF"/>
<rect x="0.5" y="0.5" width="145" height="55" rx="16.0707" stroke="#767B7C"/>
<path d="M36 12C33.8989 12 31.8183 12.4241 29.8771 13.2482C27.9359 14.0722 26.172 15.28 24.6863 16.8026C21.6857 19.8777 20 24.0484 20 28.3972C20 35.6448 24.592 41.7938 30.944 43.9746C31.744 44.1058 32 43.5975 32 43.1547V40.3836C27.568 41.3674 26.624 38.1864 26.624 38.1864C25.888 36.2843 24.848 35.776 24.848 35.776C23.392 34.7594 24.96 34.7922 24.96 34.7922C26.56 34.9069 27.408 36.4811 27.408 36.4811C28.8 38.9734 31.152 38.2356 32.064 37.842C32.208 36.7762 32.624 36.0547 33.072 35.6448C29.52 35.2349 25.792 33.8247 25.792 27.5774C25.792 25.7573 26.4 24.2979 27.44 23.1337C27.28 22.7238 26.72 21.0185 27.6 18.8049C27.6 18.8049 28.944 18.3621 32 20.4774C33.264 20.1166 34.64 19.9363 36 19.9363C37.36 19.9363 38.736 20.1166 40 20.4774C43.056 18.3621 44.4 18.8049 44.4 18.8049C45.28 21.0185 44.72 22.7238 44.56 23.1337C45.6 24.2979 46.208 25.7573 46.208 27.5774C46.208 33.8411 42.464 35.2185 38.896 35.6284C39.472 36.1367 40 37.137 40 38.6619V43.1547C40 43.5975 40.256 44.1222 41.072 43.9746C47.424 41.7774 52 35.6448 52 28.3972C52 26.2439 51.5861 24.1117 50.7821 22.1223C49.978 20.1329 48.7994 18.3253 47.3137 16.8026C45.828 15.28 44.0641 14.0722 42.1229 13.2482C40.1817 12.4241 38.1012 12 36 12Z" fill="#1E7B9D"/>
<path d="M68.33 32.916C68.2367 32.972 68.1153 33.0187 67.966 33.056C67.8167 33.0933 67.6673 33.112 67.518 33.112C67.3033 33.112 67.1307 33.0747 67 33C66.8787 32.9347 66.7713 32.818 66.678 32.65L65.278 30.046C65.0727 29.6633 64.8347 29.3973 64.564 29.248C64.2933 29.0987 63.9153 29.024 63.43 29.024H62.548V33H61.162V23.2H64.382C65.558 23.2 66.4727 23.4567 67.126 23.97C67.7793 24.4833 68.106 25.1973 68.106 26.112C68.106 26.7747 67.9053 27.3487 67.504 27.834C67.1027 28.31 66.5613 28.6413 65.88 28.828C66.1507 29.08 66.37 29.3647 66.538 29.682L68.33 32.916ZM64.298 27.946C65.0727 27.946 65.6607 27.792 66.062 27.484C66.4727 27.1667 66.678 26.7093 66.678 26.112C66.678 24.8893 65.8987 24.278 64.34 24.278H62.548V27.946H64.298ZM76.2794 28.618C76.2794 28.8047 76.2654 29.0473 76.2374 29.346H70.8614C70.8987 30.2327 71.104 30.9233 71.4774 31.418C71.8507 31.9033 72.364 32.146 73.0174 32.146C73.456 32.146 73.82 32.0573 74.1094 31.88C74.408 31.7027 74.6974 31.3947 74.9774 30.956C75.052 30.8533 75.1547 30.802 75.2854 30.802C75.5 30.802 75.78 30.928 76.1254 31.18C75.8827 31.796 75.4907 32.2767 74.9494 32.622C74.408 32.9673 73.764 33.14 73.0174 33.14C72.2987 33.14 71.6734 32.9813 71.1414 32.664C70.6187 32.3373 70.2174 31.8753 69.9374 31.278C69.6574 30.6713 69.5174 29.9573 69.5174 29.136C69.5174 27.8947 69.83 26.924 70.4554 26.224C71.09 25.5147 71.9627 25.16 73.0734 25.16C74.0907 25.16 74.8794 25.4633 75.4394 26.07C75.9994 26.6767 76.2794 27.526 76.2794 28.618ZM74.9214 28.45C74.9214 26.91 74.2914 26.14 73.0314 26.14C72.406 26.14 71.9114 26.336 71.5474 26.728C71.1834 27.12 70.964 27.694 70.8894 28.45H74.9214ZM81.5067 25.16C82.5334 25.16 83.3174 25.496 83.8587 26.168C84.4001 26.84 84.6707 27.8153 84.6707 29.094C84.6707 29.906 84.5261 30.62 84.2367 31.236C83.9474 31.8427 83.5321 32.314 82.9907 32.65C82.4587 32.9767 81.8334 33.14 81.1147 33.14C80.4707 33.14 79.8594 33.028 79.2807 32.804V36.122H77.9507V28.03C77.9507 26.6767 77.8621 25.846 77.6847 25.538C77.8621 25.4447 78.0441 25.3747 78.2307 25.328C78.4174 25.272 78.5807 25.244 78.7207 25.244C79.0287 25.244 79.2107 25.5193 79.2667 26.07C79.8921 25.4633 80.6387 25.16 81.5067 25.16ZM81.0167 32.174C81.7447 32.174 82.3047 31.908 82.6967 31.376C83.0981 30.844 83.2987 30.0833 83.2987 29.094C83.2987 28.0953 83.1354 27.3533 82.8087 26.868C82.4914 26.3733 82.0061 26.126 81.3527 26.126C80.9701 26.126 80.5967 26.2147 80.2327 26.392C79.8687 26.5693 79.5514 26.812 79.2807 27.12V31.81C79.5234 31.922 79.7941 32.0107 80.0927 32.076C80.4007 32.1413 80.7087 32.174 81.0167 32.174ZM89.0479 33.14C87.9466 33.14 87.1113 32.7993 86.5419 32.118C85.9726 31.4367 85.6879 30.4427 85.6879 29.136C85.6879 27.8293 85.9726 26.84 86.5419 26.168C87.1113 25.496 87.9466 25.16 89.0479 25.16C90.1493 25.16 90.9846 25.496 91.5539 26.168C92.1326 26.84 92.4219 27.8293 92.4219 29.136C92.4219 30.4427 92.1326 31.4367 91.5539 32.118C90.9846 32.7993 90.1493 33.14 89.0479 33.14ZM89.0479 32.174C89.7479 32.174 90.2566 31.9313 90.5739 31.446C90.9006 30.9607 91.0639 30.1907 91.0639 29.136C91.0639 28.0907 90.9006 27.33 90.5739 26.854C90.2566 26.3687 89.7479 26.126 89.0479 26.126C88.3479 26.126 87.8346 26.3687 87.5079 26.854C87.1906 27.33 87.0319 28.0907 87.0319 29.136C87.0319 30.1907 87.1953 30.9607 87.5219 31.446C87.8486 31.9313 88.3573 32.174 89.0479 32.174ZM96.3655 33.14C95.8802 33.14 95.4135 33.07 94.9655 32.93C94.5175 32.79 94.1535 32.608 93.8735 32.384C93.6029 32.1507 93.4675 31.8987 93.4675 31.628C93.4675 31.46 93.5235 31.3153 93.6355 31.194C93.7569 31.0633 93.9109 30.984 94.0975 30.956C94.3869 31.376 94.7135 31.684 95.0775 31.88C95.4415 32.076 95.8895 32.174 96.4215 32.174C96.9535 32.174 97.3549 32.0573 97.6255 31.824C97.8962 31.5813 98.0315 31.264 98.0315 30.872C98.0315 30.62 97.9475 30.4147 97.7795 30.256C97.6209 30.088 97.4155 29.9573 97.1635 29.864C96.9209 29.7613 96.5895 29.654 96.1695 29.542C95.6189 29.3927 95.1755 29.248 94.8395 29.108C94.5129 28.9587 94.2282 28.744 93.9855 28.464C93.7522 28.1747 93.6355 27.7967 93.6355 27.33C93.6355 26.8633 93.7662 26.4667 94.0275 26.14C94.2889 25.8133 94.6249 25.5707 95.0355 25.412C95.4462 25.244 95.8755 25.16 96.3235 25.16C96.9489 25.16 97.5042 25.286 97.9895 25.538C98.4842 25.7807 98.8669 26.1213 99.1375 26.56C99.0255 26.7187 98.9042 26.8447 98.7735 26.938C98.6429 27.0313 98.5215 27.078 98.4095 27.078C98.2695 27.078 98.1435 27.0127 98.0315 26.882C97.5835 26.3593 97.0095 26.098 96.3095 26.098C95.8802 26.098 95.5395 26.196 95.2875 26.392C95.0355 26.588 94.9095 26.8867 94.9095 27.288C94.9095 27.54 94.9889 27.7453 95.1475 27.904C95.3062 28.0533 95.5069 28.1747 95.7495 28.268C95.9922 28.352 96.3189 28.4453 96.7295 28.548C97.2895 28.6973 97.7375 28.842 98.0735 28.982C98.4095 29.122 98.6989 29.3413 98.9415 29.64C99.1842 29.9387 99.3055 30.3353 99.3055 30.83C99.3055 31.5487 99.0395 32.1133 98.5075 32.524C97.9849 32.9347 97.2709 33.14 96.3655 33.14ZM101.184 25.3H102.5V33H101.184V25.3ZM101.772 23.886C101.25 23.886 100.988 23.6247 100.988 23.102V22.948C100.988 22.4253 101.25 22.164 101.772 22.164H101.912C102.435 22.164 102.696 22.4253 102.696 22.948V23.102C102.696 23.6247 102.435 23.886 101.912 23.886H101.772ZM108.787 31.922C108.862 31.9593 108.923 32.0247 108.969 32.118C109.016 32.202 109.039 32.3 109.039 32.412C109.039 32.5987 108.969 32.734 108.829 32.818C108.689 32.9207 108.493 33 108.241 33.056C107.999 33.112 107.733 33.14 107.443 33.14C106.818 33.14 106.319 32.972 105.945 32.636C105.572 32.2907 105.385 31.8333 105.385 31.264V26.238H104.027V25.3H105.385V23.2H106.715V25.3H108.549V26.238H106.715V31.082C106.715 31.4553 106.79 31.7307 106.939 31.908C107.089 32.076 107.317 32.16 107.625 32.16C107.999 32.16 108.386 32.0807 108.787 31.922ZM113.11 33.14C112.009 33.14 111.174 32.7993 110.604 32.118C110.035 31.4367 109.75 30.4427 109.75 29.136C109.75 27.8293 110.035 26.84 110.604 26.168C111.174 25.496 112.009 25.16 113.11 25.16C114.212 25.16 115.047 25.496 115.616 26.168C116.195 26.84 116.484 27.8293 116.484 29.136C116.484 30.4427 116.195 31.4367 115.616 32.118C115.047 32.7993 114.212 33.14 113.11 33.14ZM113.11 32.174C113.81 32.174 114.319 31.9313 114.636 31.446C114.963 30.9607 115.126 30.1907 115.126 29.136C115.126 28.0907 114.963 27.33 114.636 26.854C114.319 26.3687 113.81 26.126 113.11 26.126C112.41 26.126 111.897 26.3687 111.57 26.854C111.253 27.33 111.094 28.0907 111.094 29.136C111.094 30.1907 111.258 30.9607 111.584 31.446C111.911 31.9313 112.42 32.174 113.11 32.174ZM121.422 25.202C122.159 25.202 122.528 25.4773 122.528 26.028C122.528 26.252 122.467 26.434 122.346 26.574C122.103 26.4527 121.786 26.392 121.394 26.392C120.778 26.392 120.293 26.6207 119.938 27.078C119.593 27.526 119.42 28.1467 119.42 28.94V33H118.09V25.3H119.42V26.588C119.625 26.168 119.905 25.832 120.26 25.58C120.624 25.328 121.011 25.202 121.422 25.202ZM129.725 25.3L126.743 33.588C126.454 34.3813 126.104 34.9507 125.693 35.296C125.292 35.6413 124.765 35.814 124.111 35.814C123.719 35.814 123.407 35.744 123.173 35.604C122.94 35.4733 122.823 35.3007 122.823 35.086C122.823 34.8713 122.917 34.6753 123.103 34.498C123.206 34.5727 123.346 34.6287 123.523 34.666C123.701 34.7127 123.878 34.736 124.055 34.736C124.429 34.736 124.737 34.5867 124.979 34.288C125.231 33.9987 125.455 33.5273 125.651 32.874L122.907 25.3H124.293L126.323 31.166L128.339 25.3H129.725Z" fill="#1E7B9D"/>
</svg>
