<svg width="117" height="56" viewBox="0 0 117 56" fill="none" xmlns="http://www.w3.org/2000/svg">
<rect x="0.5" y="0.5" width="115.424" height="55" rx="16.0707" fill="#FCFFFF"/>
<rect x="0.5" y="0.5" width="115.424" height="55" rx="16.0707" stroke="#767B7C"/>
<path fill-rule="evenodd" clip-rule="evenodd" d="M36 44C38.1012 44 40.1817 43.5861 42.1229 42.7821C44.0641 41.978 45.828 40.7994 47.3137 39.3137C48.7994 37.828 49.978 36.0641 50.7821 34.1229C51.5861 32.1817 52 30.1012 52 28C52 25.8989 51.5861 23.8183 50.7821 21.8771C49.978 19.9359 48.7994 18.172 47.3137 16.6863C45.828 15.2006 44.0641 14.022 42.1229 13.2179C40.1817 12.4139 38.1012 12 36 12C31.7565 12 27.6869 13.6857 24.6863 16.6863C21.6857 19.6869 20 23.7565 20 28C20 32.2435 21.6857 36.3131 24.6863 39.3137C27.6869 42.3143 31.7565 44 36 44ZM33.8364 20.8711L43.8702 26.4462C44.1472 26.6002 44.378 26.8255 44.5387 27.0987C44.6994 27.3719 44.7841 27.6831 44.7841 28C44.7841 28.3169 44.6994 28.6281 44.5387 28.9013C44.378 29.1745 44.1472 29.3998 43.8702 29.5538L33.8364 35.1289C33.5116 35.3095 33.1451 35.402 32.7734 35.3974C32.4018 35.3928 32.0377 35.2911 31.7175 35.1025C31.3972 34.9139 31.1317 34.6449 30.9474 34.3221C30.7631 33.9993 30.6663 33.6339 30.6667 33.2622V22.7378C30.6663 22.3661 30.7631 22.0007 30.9474 21.6779C31.1317 21.3551 31.3972 21.0861 31.7175 20.8975C32.0377 20.7089 32.4018 20.6072 32.7734 20.6026C33.1451 20.598 33.5116 20.6905 33.8364 20.8711Z" fill="#1E7B9D"/>
<path d="M96.9661 33.6519C95.8461 33.6519 94.9875 33.3065 94.3901 32.6159C93.7928 31.9252 93.4941 30.9359 93.4941 29.6479C93.4941 28.3599 93.7928 27.3752 94.3901 26.6939C94.9875 26.0125 95.8461 25.6719 96.9661 25.6719C98.0861 25.6719 98.9401 26.0125 99.5281 26.6939C100.125 27.3752 100.424 28.3599 100.424 29.6479C100.424 30.9452 100.125 31.9392 99.5281 32.6299C98.9308 33.3112 98.0768 33.6519 96.9661 33.6519ZM96.9661 32.4899C97.5728 32.4899 98.0115 32.2659 98.2821 31.8179C98.5621 31.3605 98.7021 30.6372 98.7021 29.6479C98.7021 28.6679 98.5621 27.9539 98.2821 27.5059C98.0115 27.0579 97.5728 26.8339 96.9661 26.8339C96.3595 26.8339 95.9161 27.0579 95.6361 27.5059C95.3655 27.9445 95.2301 28.6585 95.2301 29.6479C95.2301 30.6465 95.3655 31.3699 95.6361 31.8179C95.9161 32.2659 96.3595 32.4899 96.9661 32.4899Z" fill="#1E7B9D"/>
<path d="M92.5654 29.1439C92.5654 29.3025 92.5468 29.5685 92.5094 29.9419H87.3574C87.4041 30.7445 87.5908 31.3652 87.9174 31.8039C88.2441 32.2425 88.6874 32.4619 89.2474 32.4619C89.6301 32.4619 89.9428 32.3872 90.1854 32.2379C90.4374 32.0792 90.7221 31.7759 91.0394 31.3279C91.0954 31.2439 91.1934 31.2019 91.3334 31.2019C91.5948 31.2019 91.9541 31.3652 92.4114 31.6919C92.1501 32.3265 91.7441 32.8119 91.1934 33.1479C90.6521 33.4839 90.0034 33.6519 89.2474 33.6519C88.1181 33.6519 87.2268 33.2972 86.5734 32.5879C85.9294 31.8692 85.6074 30.8892 85.6074 29.6479C85.6074 28.4159 85.9341 27.4452 86.5874 26.7359C87.2408 26.0265 88.1368 25.6719 89.2754 25.6719C90.3208 25.6719 91.1281 25.9752 91.6974 26.5819C92.2761 27.1885 92.5654 28.0425 92.5654 29.1439ZM90.8434 28.9059C90.8434 27.5152 90.3068 26.8199 89.2334 26.8199C88.7014 26.8199 88.2768 26.9972 87.9594 27.3519C87.6514 27.6972 87.4601 28.2152 87.3854 28.9059H90.8434Z" fill="#1E7B9D"/>
<path d="M84.0176 30.9853C84.0176 31.592 84.0456 32.0633 84.1016 32.3993C84.1576 32.726 84.2556 33.0013 84.3956 33.2253C83.9382 33.4773 83.4949 33.6033 83.0656 33.6033C82.8789 33.6033 82.7296 33.5286 82.6176 33.3793C82.5056 33.2206 82.4262 32.9686 82.3796 32.6233C82.1182 32.978 81.8149 33.2393 81.4696 33.4073C81.1336 33.5753 80.7369 33.6593 80.2796 33.6593C79.2809 33.6593 78.5016 33.314 77.9416 32.6233C77.3816 31.9233 77.1016 30.948 77.1016 29.6973C77.1016 28.876 77.2416 28.1666 77.5216 27.5693C77.8109 26.9626 78.2216 26.496 78.7536 26.1693C79.2856 25.8426 79.9109 25.6793 80.6296 25.6793C80.9282 25.6793 81.2316 25.7213 81.5396 25.8053C81.8476 25.8893 82.1089 26.0013 82.3236 26.1413V22.4453H84.0176V30.9853ZM80.5316 32.4973C80.9142 32.4973 81.2502 32.4086 81.5396 32.2313C81.8289 32.0446 82.0902 31.7553 82.3236 31.3633V27.3593C82.1462 27.2006 81.9176 27.07 81.6376 26.9673C81.3576 26.8646 81.0729 26.8133 80.7836 26.8133C80.1582 26.8133 79.6776 27.0653 79.3416 27.5693C79.0056 28.064 78.8376 28.7733 78.8376 29.6973C78.8376 31.564 79.4022 32.4973 80.5316 32.4973Z" fill="#1E7B9D"/>
<path d="M73.7676 25.8158H75.4756V33.5158H73.7676V25.8158ZM74.5376 24.4018C73.9123 24.4018 73.5996 24.0891 73.5996 23.4637V23.2818C73.5996 22.6564 73.9123 22.3438 74.5376 22.3438H74.7056C75.3309 22.3438 75.6436 22.6564 75.6436 23.2818V23.4637C75.6436 24.0891 75.3309 24.4018 74.7056 24.4018H74.5376Z" fill="#1E7B9D"/>
<path d="M72.288 23.7188C72.064 25.5761 71.6767 27.3074 71.126 28.9128C70.5847 30.5181 69.8613 32.0534 68.956 33.5188H67.346C66.4407 32.0721 65.7127 30.5461 65.162 28.9408C64.6207 27.3354 64.2333 25.5948 64 23.7188H65.834C66.0207 25.2774 66.31 26.7288 66.702 28.0728C67.094 29.4168 67.5747 30.6161 68.144 31.6708C68.7133 30.6161 69.194 29.4168 69.586 28.0728C69.978 26.7288 70.2673 25.2774 70.454 23.7188H72.288Z" fill="#1E7B9D"/>
</svg>
