<svg width="32" height="32" viewBox="0 0 32 32" fill="none" xmlns="http://www.w3.org/2000/svg">
<path d="M27.086 15.7883C27.086 15.0972 26.8115 14.4344 26.3228 13.9457C25.8342 13.4571 25.1714 13.1825 24.4803 13.1825C24.3873 13.1825 24.2963 13.1875 24.2063 13.1965L27.786 2.64062H12.5755L16.1492 13.1875C16.0972 13.1875 16.0442 13.1825 15.9912 13.1825C15.3697 13.1831 14.7689 13.4057 14.2971 13.8102C13.8252 14.2147 13.5134 14.7744 13.4179 15.3885C13.3223 16.0026 13.4493 16.6306 13.7759 17.1593C14.1026 17.688 14.6073 18.0826 15.1993 18.272C14.6451 19.2265 13.9549 20.0951 13.1505 20.8508C12.1036 21.8514 10.8601 22.6233 9.49884 23.1175C8.73609 22.7558 8.13958 22.1173 7.83038 21.3318C7.52119 20.5463 7.52248 19.6726 7.83401 18.888C7.911 18.708 7.989 18.526 8.06399 18.344C8.64526 18.2072 9.16198 17.8751 9.52779 17.4031C9.8936 16.9311 10.0863 16.3479 10.0738 15.7508C10.0613 15.1538 9.84418 14.5792 9.45887 14.123C9.07355 13.6668 8.54334 13.3566 7.95683 13.2444C7.37032 13.1321 6.76305 13.2246 6.23652 13.5063C5.70998 13.7879 5.29607 14.2418 5.06396 14.792C4.83185 15.3422 4.7956 15.9554 4.96128 16.5291C5.12696 17.1028 5.48452 17.6023 5.9742 17.9441C5.14183 19.4523 4.50701 21.0613 4.0854 22.7316C3.73143 24.8663 4.0854 27.1311 5.93021 28.412C10.2298 31.3927 14.8983 26.5642 19.8198 25.3513C21.6036 24.9113 23.5614 24.9823 25.1322 24.0714C25.7001 23.7486 26.1897 23.3045 26.5663 22.7708C26.9429 22.2371 27.1972 21.6269 27.311 20.9837C27.4154 20.3712 27.3956 19.7439 27.2529 19.1391C27.1102 18.5343 26.8474 17.9644 26.4801 17.4631C26.8721 16.9946 27.0866 16.4031 27.086 15.7923V15.7883ZM18.5979 15.8023V15.7933C18.5982 15.345 18.4827 14.9041 18.2627 14.5135C18.0427 14.1229 17.7256 13.7957 17.342 13.5635L20.1857 7.8031L23.0355 13.6165C22.6779 13.8541 22.3848 14.1765 22.1823 14.5549C21.9797 14.9333 21.874 15.356 21.8746 15.7853V15.8423L18.5979 15.8023Z" fill="#99425B"/>
<path d="M27.7232 15.7846C27.722 15.0291 27.4575 14.2977 26.9751 13.7162C26.4928 13.1347 25.8228 12.7396 25.0805 12.5989L28.6741 2H11.6879L15.2875 12.6199C14.6588 12.7599 14.086 13.0841 13.6423 13.551C13.1986 14.0179 12.9041 14.6064 12.7962 15.2414C12.6884 15.8764 12.7722 16.5292 13.0369 17.1164C13.3017 17.7036 13.7353 18.1986 14.2826 18.5383C13.8305 19.2101 13.3046 19.8293 12.7148 20.3841C11.8017 21.2574 10.7289 21.9465 9.55509 22.4139C9.00409 22.0939 8.58645 21.5866 8.37831 20.9844C8.17016 20.3821 8.18539 19.7252 8.4212 19.1332L8.4612 19.0403L8.53519 18.8653C9.20131 18.6342 9.77399 18.1923 10.1665 17.6067C10.5591 17.021 10.7501 16.3233 10.7107 15.6194C10.6712 14.9154 10.4035 14.2435 9.94803 13.7053C9.49254 13.1671 8.8741 12.792 8.18635 12.6367C7.4986 12.4815 6.77898 12.5545 6.13646 12.8448C5.49394 13.1352 4.96352 13.6269 4.62549 14.2457C4.28746 14.8644 4.16025 15.5765 4.26311 16.274C4.36597 16.9715 4.6933 17.6165 5.19554 18.1113C5.08755 18.3423 4.97356 18.5763 4.85657 18.8173C4.20855 20.0094 3.73702 21.2893 3.45671 22.6169C2.99176 25.4166 3.74169 27.6594 5.5675 28.9242C6.54903 29.6261 7.72649 30.0015 8.93315 29.9971C11.0649 29.9971 13.2217 28.9262 15.3325 27.8783C16.8072 27.0764 18.3632 26.4338 19.974 25.9615C20.5683 25.8252 21.1689 25.7188 21.7738 25.6426C23.0548 25.5403 24.304 25.1912 25.4525 24.6147C26.1004 24.2447 26.6591 23.7367 27.0888 23.1268C27.5186 22.5168 27.8089 21.8197 27.9392 21.085C28.1519 19.837 27.9069 18.5542 27.2493 17.4724C27.5604 16.9645 27.7238 16.3803 27.7232 15.7846ZM26.4504 15.7846C26.4504 16.1742 26.3348 16.555 26.1184 16.8789C25.9019 17.2029 25.5943 17.4554 25.2344 17.6044C24.8744 17.7535 24.4784 17.7925 24.0963 17.7165C23.7142 17.6405 23.3632 17.4529 23.0877 17.1774C22.8122 16.902 22.6246 16.551 22.5486 16.1689C22.4726 15.7868 22.5116 15.3907 22.6607 15.0308C22.8098 14.6708 23.0623 14.3632 23.3862 14.1468C23.7101 13.9303 24.091 13.8148 24.4806 13.8148C25.0027 13.8156 25.5033 14.0234 25.8725 14.3926C26.2418 14.7618 26.4496 15.2624 26.4504 15.7846ZM26.8973 3.27287L23.7236 12.6319C23.5878 12.665 23.4542 12.7068 23.3237 12.7569L20.189 6.35755L17.0443 12.7189C16.9073 12.6717 16.7674 12.6336 16.6254 12.6049L13.4627 3.27287H26.8973ZM15.9914 13.8148C16.381 13.8148 16.7619 13.9303 17.0858 14.1468C17.4097 14.3632 17.6622 14.6708 17.8113 15.0308C17.9604 15.3907 17.9994 15.7868 17.9234 16.1689C17.8474 16.551 17.6598 16.902 17.3843 17.1774C17.1088 17.4529 16.7578 17.6405 16.3757 17.7165C15.9936 17.7925 15.5976 17.7535 15.2376 17.6044C14.8777 17.4554 14.57 17.2029 14.3536 16.8789C14.1372 16.555 14.0216 16.1742 14.0216 15.7846C14.0222 15.2623 14.2299 14.7616 14.5992 14.3923C14.9684 14.023 15.4692 13.8153 15.9914 13.8148ZM7.4693 13.8338C7.85889 13.8338 8.23973 13.9493 8.56366 14.1658C8.88759 14.3822 9.14007 14.6898 9.28916 15.0498C9.43825 15.4097 9.47726 15.8058 9.40125 16.1879C9.32525 16.57 9.13764 16.921 8.86216 17.1964C8.58668 17.4719 8.23569 17.6595 7.85359 17.7355C7.47149 17.8115 7.07543 17.7725 6.71549 17.6234C6.35556 17.4743 6.04792 17.2219 5.83148 16.8979C5.61503 16.574 5.4995 16.1932 5.4995 15.8036C5.50003 15.2815 5.7076 14.7809 6.07668 14.4117C6.44575 14.0424 6.94722 13.8346 7.4693 13.8338ZM26.6843 20.8671C26.5856 21.4183 26.3669 21.941 26.0436 22.3983C25.7202 22.8555 25.3003 23.236 24.8135 23.5128C23.804 24.0039 22.7104 24.2991 21.5909 24.3827C20.9589 24.4737 20.306 24.5677 19.667 24.7257C17.9662 25.2184 16.3235 25.8932 14.7676 26.7385C11.6039 28.3093 8.86816 29.6662 6.29642 27.8813C4.40962 26.5735 4.49661 24.1537 4.71659 22.8279C4.97507 21.6207 5.40719 20.4574 5.99945 19.3742L6.26943 18.8153C6.53814 18.9222 6.81993 18.9929 7.10734 19.0253C6.85244 19.9241 6.92335 20.8842 7.30756 21.7358C7.69177 22.5875 8.36456 23.276 9.20712 23.6798L9.4521 23.8058L9.71107 23.7128C11.1561 23.1917 12.4762 22.3743 13.5867 21.313C14.3199 20.6225 14.9642 19.8433 15.5045 18.9933C16.1955 19.0984 16.902 18.9772 17.5186 18.6479C18.1352 18.3186 18.6287 17.7987 18.9256 17.1659C19.2225 16.5331 19.3068 15.8212 19.166 15.1366C19.0252 14.4519 18.6668 13.8311 18.1442 13.3668L20.182 9.24626L22.2408 13.4458C21.655 14.0104 21.3031 14.7746 21.2549 15.5867C21.2067 16.3988 21.4659 17.1993 21.9808 17.8291C22.4957 18.4589 23.2288 18.872 24.0343 18.9861C24.8397 19.1003 25.6587 18.9072 26.3284 18.4453C26.6998 19.1944 26.8241 20.0419 26.6833 20.8661L26.6843 20.8671Z" fill="white"/>
</svg>
