<svg width="32" height="32" viewBox="0 0 32 32" fill="none" xmlns="http://www.w3.org/2000/svg">
<g clip-path="url(#clip0_285_5477)">
<path d="M24.5029 0H7.50089C3.35826 0 0 3.35826 0 7.50089V24.5029C0 28.6455 3.35826 32.0038 7.50089 32.0038H24.5029C28.6455 32.0038 32.0038 28.6455 32.0038 24.5029V7.50089C32.0038 3.35826 28.6455 0 24.5029 0Z" fill="#CD6799"/>
<mask id="mask0_285_5477" style="mask-type:luminance" maskUnits="userSpaceOnUse" x="3" y="6" width="26" height="20">
<path d="M3.50195 6.63281H28.5049V25.3737H3.50195V6.63281Z" fill="white"/>
</mask>
<g mask="url(#mask0_285_5477)">
<path d="M25.0171 17.4057C24.1452 17.4102 23.3876 17.6202 22.7532 17.9305C22.5204 17.4696 22.2876 17.0588 22.2465 16.7575C22.2009 16.4061 22.1461 16.1916 22.2009 15.7716C22.2556 15.3517 22.5022 14.7539 22.4975 14.7082C22.493 14.6625 22.4428 14.4481 21.9407 14.4435C21.4387 14.439 21.0051 14.5394 20.9549 14.6717C20.9046 14.804 20.8088 15.1053 20.745 15.4157C20.6582 15.8721 19.7407 17.5016 19.2159 18.3551C19.047 18.0219 18.901 17.7297 18.869 17.497C18.8233 17.1455 18.7686 16.931 18.8234 16.5111C18.8781 16.0912 19.1246 15.4932 19.12 15.4476C19.1155 15.402 19.0653 15.1874 18.5632 15.1829C18.0611 15.1783 17.6275 15.2787 17.5773 15.4111C17.5271 15.5435 17.4723 15.8539 17.3673 16.155C17.2624 16.4563 16.0438 19.1767 15.7242 19.8795C15.5951 20.1639 15.4597 20.4454 15.3181 20.7238C15.3181 20.7238 15.3134 20.7376 15.2998 20.7603C15.2553 20.8476 15.2096 20.9344 15.1628 21.0205V21.0251C15.0944 21.1484 15.0213 21.2624 14.9848 21.2624C14.9574 21.2624 14.9073 20.9339 14.9939 20.4866C15.1765 19.5417 15.6101 18.072 15.6056 18.0219C15.6056 17.9945 15.6877 17.7389 15.3226 17.6065C14.9665 17.4741 14.8388 17.6932 14.8067 17.6932C14.7749 17.6932 14.752 17.7709 14.752 17.7709C14.752 17.7709 15.1492 16.1185 13.9944 16.1185C13.2732 16.1185 12.2782 16.9081 11.7854 17.6202C11.225 17.9251 10.665 18.2309 10.1056 18.5376C9.83641 18.6882 9.558 18.8389 9.29772 18.9804C9.27947 18.9621 9.26121 18.9393 9.24296 18.921C7.8463 17.4284 5.26299 16.3742 5.3725 14.3705C5.41363 13.6401 5.66466 11.7231 10.3338 9.39537C14.1769 7.50127 17.235 8.02608 17.7645 9.18997C18.5221 10.8514 16.1259 13.9368 12.1551 14.3841C10.6396 14.553 9.84553 13.9688 9.64476 13.7498C9.43473 13.5215 9.40273 13.5079 9.3251 13.5535C9.19733 13.6219 9.27947 13.8273 9.3251 13.9459C9.44386 14.2563 9.93217 14.804 10.7583 15.0733C11.4886 15.3107 13.2641 15.4431 15.4138 14.6124C17.8192 13.6813 19.6997 11.0932 19.1474 8.92531C18.5952 6.7253 14.9438 5.99959 11.4886 7.22736C9.43461 7.9577 7.20734 9.10783 5.60528 10.6049C3.70193 12.3851 3.40077 13.9323 3.52403 14.5804C3.96671 16.8808 7.13884 18.3778 8.40774 19.4869C8.34385 19.5234 8.28447 19.5555 8.23434 19.5828C7.59989 19.8977 5.18085 21.162 4.57828 22.4994C3.8937 24.0147 4.68792 25.101 5.21273 25.247C6.84218 25.6989 8.51725 24.8865 9.41648 23.5446C10.3156 22.2026 10.2061 20.4592 9.79065 19.6605C9.7862 19.6503 9.78003 19.6411 9.7724 19.6331C9.93679 19.5372 10.1056 19.4368 10.27 19.3409C10.572 19.1624 10.8779 18.9905 11.1873 18.8251C11.0322 19.2497 10.918 19.7562 10.8633 20.4866C10.7949 21.3447 11.1463 22.4583 11.6072 22.8965C11.8126 23.0881 12.0545 23.0927 12.2098 23.0927C12.7484 23.0927 12.9903 22.6454 13.2596 22.116C13.5881 21.4678 13.8849 20.7147 13.8849 20.7147C13.8849 20.7147 13.5151 22.7505 14.5192 22.7505C14.8844 22.7505 15.2541 22.2758 15.4184 22.0339V22.0384C15.4184 22.0384 15.4276 22.0247 15.4458 21.9927C15.4823 21.9334 15.5051 21.8969 15.5051 21.8969V21.8877C15.6512 21.6322 15.9798 21.0525 16.4682 20.0894C17.098 18.848 17.7051 17.2962 17.7051 17.2962C17.7051 17.2962 17.7598 17.675 17.947 18.3048C18.0565 18.6746 18.2848 19.0808 18.4673 19.4733C18.3213 19.6787 18.23 19.7927 18.23 19.7927L18.2345 19.7974C18.1159 19.9525 17.9881 20.1214 17.8466 20.2857C17.3491 20.8791 16.7557 21.5592 16.6736 21.7555C16.5777 21.9882 16.6006 22.157 16.7831 22.294C16.9155 22.3944 17.1528 22.408 17.3947 22.3944C17.842 22.3624 18.157 22.2529 18.3122 22.1844C18.5541 22.0978 18.8371 21.9654 19.1018 21.7691C19.5902 21.4085 19.8869 20.8927 19.8595 20.2127C19.8457 19.8384 19.7225 19.4642 19.5719 19.1126C19.6176 19.0488 19.6586 18.9849 19.7042 18.921C20.4757 17.7936 21.0735 16.5567 21.0735 16.5567C21.0735 16.5567 21.1283 16.9355 21.3154 17.5655C21.4067 17.8849 21.5938 18.2318 21.7582 18.5696C21.0325 19.1584 20.5852 19.843 20.4254 20.2903C20.1379 21.121 20.3615 21.4952 20.786 21.5819C20.9777 21.6231 21.2515 21.5318 21.4524 21.4451C21.7079 21.3629 22.0092 21.2214 22.2968 21.0114C22.7851 20.6508 23.2553 20.1488 23.2279 19.4687C23.2141 19.1584 23.132 18.8525 23.0179 18.5558C23.6341 18.3003 24.4283 18.1588 25.4415 18.2774C27.6141 18.5331 28.0432 19.8886 27.9609 20.4592C27.8788 21.0296 27.4224 21.34 27.2717 21.4359C27.1212 21.5318 27.071 21.5637 27.0847 21.6322C27.103 21.7326 27.176 21.728 27.3037 21.7097C27.4818 21.6778 28.4447 21.2488 28.4859 20.199C28.5544 18.8571 27.2764 17.3919 25.0171 17.4057ZM8.25709 23.0562C7.53601 23.8412 6.53189 24.138 6.09821 23.887C5.63266 23.6176 5.81518 22.4583 6.70078 21.6276C7.23922 21.121 7.93306 20.6508 8.39399 20.3633C8.499 20.2994 8.65414 20.2082 8.84129 20.094C8.87329 20.0758 8.89154 20.0666 8.89154 20.0666L9.00106 19.9981C9.3251 21.1849 9.01468 22.2301 8.25709 23.0562ZM13.506 19.4869C13.2549 20.0986 12.7301 21.6641 12.4106 21.5774C12.1368 21.5043 11.9679 20.3177 12.3558 19.1447C12.5521 18.5558 12.9674 17.853 13.2093 17.5791C13.6019 17.1409 14.0354 16.9949 14.1404 17.1729C14.2728 17.4057 13.6612 19.1035 13.506 19.4869ZM17.8375 21.5592C17.7325 21.6139 17.6321 21.6504 17.5865 21.6231C17.5545 21.6048 17.6321 21.5318 17.6321 21.5318C17.6321 21.5318 18.1753 20.9475 18.3898 20.6828C18.5129 20.5276 18.6591 20.345 18.8142 20.1396V20.199C18.8142 20.8974 18.1388 21.3674 17.8375 21.5592ZM21.1785 20.7968C21.1009 20.7421 21.1146 20.5596 21.3748 19.989C21.4752 19.7654 21.7126 19.3912 22.1187 19.0305C22.1644 19.1767 22.1964 19.318 22.1918 19.4504C22.1873 20.3314 21.5573 20.66 21.1785 20.7968Z" fill="white"/>
</g>
</g>
<defs>
<clipPath id="clip0_285_5477">
<rect width="32.0038" height="32.0038" fill="white"/>
</clipPath>
</defs>
</svg>
