<svg width="32" height="32" viewBox="0 0 32 32" fill="none" xmlns="http://www.w3.org/2000/svg">
<path d="M5.80078 24.5995L5.97078 24.3625L13.9908 9.14846L14.0078 8.98746L10.4728 2.34745C10.4081 2.22603 10.3068 2.12803 10.1833 2.06732C10.0599 2.0066 9.92043 1.98625 9.78475 2.00914C9.64908 2.03203 9.52403 2.097 9.42731 2.19486C9.33059 2.29272 9.26708 2.41852 9.24579 2.55445L5.80078 24.5995Z" fill="#FFC24A"/>
<path d="M5.90039 24.4124L6.02839 24.1624L13.9654 9.10638L10.4394 2.44037C10.3812 2.32444 10.2871 2.23048 10.1711 2.17255C10.055 2.11462 9.92335 2.09585 9.79575 2.11905C9.66815 2.14225 9.5515 2.20617 9.46328 2.30124C9.37506 2.3963 9.32001 2.5174 9.30639 2.64637L5.90039 24.4124Z" fill="#FFA712"/>
<path d="M16.5835 14.0005L19.2155 11.3004L16.5825 6.27944C16.5245 6.17138 16.4383 6.08106 16.3331 6.01809C16.2279 5.95513 16.1076 5.92188 15.985 5.92188C15.8624 5.92188 15.742 5.95513 15.6368 6.01809C15.5316 6.08106 15.4454 6.17138 15.3875 6.27944L13.9805 8.96144V9.19044L16.5835 14.0005Z" fill="#F4BD62"/>
<path d="M16.5378 13.8875L19.0968 11.2675L16.5378 6.38752C16.4959 6.28189 16.4244 6.19063 16.3318 6.12474C16.2392 6.05886 16.1296 6.02116 16.016 6.01619C15.9025 6.01122 15.79 6.0392 15.692 6.09674C15.594 6.15429 15.5148 6.23896 15.4638 6.34052L14.0498 9.06953L14.0078 9.20853L16.5378 13.8875Z" fill="#FFA50E"/>
<path d="M5.80273 24.5981L5.87973 24.5201L6.15873 24.4071L16.4187 14.1851L16.5487 13.8311L13.9897 8.95312L5.80273 24.5981Z" fill="#F6820C"/>
<path d="M16.9128 29.7446L26.2008 24.5656L23.5468 8.2346C23.5278 8.11947 23.4774 8.01182 23.4012 7.92345C23.325 7.83508 23.2259 7.76941 23.1149 7.73366C23.0038 7.69791 22.885 7.69346 22.7716 7.72079C22.6581 7.74812 22.5544 7.80618 22.4718 7.8886L5.80078 24.5886L15.0338 29.7436C15.3208 29.9038 15.6441 29.9879 15.9728 29.9879C16.3015 29.9879 16.6247 29.9038 16.9118 29.7436" fill="#FDE068"/>
<path d="M26.1154 24.5228L23.4834 8.31476C23.4788 8.20465 23.4416 8.09839 23.3765 8.00943C23.3114 7.92047 23.2214 7.85282 23.1179 7.81502C23.0144 7.77723 22.902 7.771 22.7949 7.79712C22.6878 7.82324 22.5909 7.88054 22.5164 7.96176L5.90039 24.5578L15.0314 29.6578C15.3162 29.8167 15.6368 29.9 15.9629 29.9C16.289 29.9 16.6096 29.8167 16.8944 29.6578L26.1154 24.5228Z" fill="#FCCA3F"/>
<path d="M16.9128 29.5849C16.6258 29.7451 16.3025 29.8291 15.9738 29.8291C15.6451 29.8291 15.3218 29.7451 15.0348 29.5849L5.87678 24.5069L5.80078 24.5849L15.0338 29.7399C15.3208 29.9001 15.6441 29.9841 15.9728 29.9841C16.3015 29.9841 16.6247 29.9001 16.9118 29.7399L26.2008 24.5619L26.1778 24.4219L16.9128 29.5849Z" fill="#EEAB37"/>
</svg>
