<svg width="29" height="32" viewBox="0 0 29 32" fill="none" xmlns="http://www.w3.org/2000/svg">
<g clip-path="url(#clip0_285_5411)">
<path d="M3.87093 28.5753C3.24453 28.4014 2.7915 27.8575 2.73377 27.21L0.482853 1.96506C0.401437 1.05195 1.12077 0.265625 2.0375 0.265625H26.0774C26.9942 0.265625 27.7136 1.05208 27.632 1.96526L25.3782 27.2053C25.3203 27.8529 24.8671 28.3969 24.2405 28.5706L14.4581 31.2827C14.1851 31.3584 13.8966 31.3584 13.6236 31.2826L3.87093 28.5753Z" fill="#E44F26"/>
<path d="M13.2656 27.2678L20.4385 24.8925L22.126 2.3125H13.2656V27.2678Z" fill="#F1662A"/>
<path d="M13.2671 12.1074H9.67622L9.42864 8.78832H13.2671V5.54688H6.46289L6.52786 6.41727L7.19423 15.3488H13.2671V12.1074ZM13.2671 20.5251L13.2548 20.5293L10.2328 19.555L10.0397 16.9701H7.31539L7.69554 22.0582L13.2548 23.9018L13.2671 23.8976V20.5251Z" fill="#EBEBEB"/>
<path d="M13.2578 12.1074V15.3488H16.5993L16.285 19.5529L13.2578 20.5282V23.9007L18.8214 22.0582L18.8618 21.5108L19.4992 12.9778L19.5659 12.1074H13.2578ZM13.2578 5.54688V8.78832H19.8127L19.8671 8.06054L19.9909 6.41727L20.0558 5.54688H13.2578Z" fill="white"/>
</g>
<defs>
<clipPath id="clip0_285_5411">
<rect width="28.0947" height="31.9967" fill="white"/>
</clipPath>
</defs>
</svg>
