<svg width="31" height="32" viewBox="0 0 31 32" fill="none" xmlns="http://www.w3.org/2000/svg">
<g clip-path="url(#clip0_285_5466)">
<path d="M23.9707 0H6.9707C2.82857 0 -0.529297 3.35747 -0.529297 7.49911V24.4971C-0.529297 28.6387 2.82857 31.9962 6.9707 31.9962H23.9707C28.1128 31.9962 31.4707 28.6387 31.4707 24.4971V7.49911C31.4707 3.35747 28.1128 0 23.9707 0Z" fill="#023430"/>
<path d="M20.8673 13.4477C19.5502 7.63826 16.8052 6.09169 16.1049 4.99845C15.8162 4.51684 15.5604 4.01621 15.3393 3.5C15.3023 4.01619 15.2343 4.34115 14.7956 4.7326C13.9147 5.51789 10.1734 8.56628 9.85856 15.1671C9.56518 21.3216 14.3836 25.1166 15.0201 25.5089C15.5096 25.7497 16.1057 25.514 16.3966 25.2929C18.7192 23.6991 21.8927 19.4499 20.8698 13.4477" fill="#10AA50"/>
<path d="M15.5376 22.2344C15.4164 23.7577 15.3295 24.6428 15.0215 25.5134C15.0215 25.5134 15.2236 26.9636 15.3656 28.4998H15.868C15.9878 27.418 16.1708 26.3441 16.416 25.2836C15.7656 24.9637 15.5626 23.5711 15.5376 22.2344Z" fill="#B8C4C2"/>
<path d="M16.4162 25.2839C15.7589 24.9803 15.5688 23.5583 15.5396 22.2337C15.7021 20.0486 15.7495 17.8565 15.6816 15.6664C15.6471 14.5173 15.6978 5.0229 15.3984 3.63281C15.6033 4.10361 15.8392 4.56024 16.1048 4.99965C16.8051 6.09377 19.5509 7.64034 20.8672 13.4498C21.8926 19.4417 18.7363 23.6797 16.4162 25.2839Z" fill="#12924F"/>
</g>
<defs>
<clipPath id="clip0_285_5466">
<rect width="30.9412" height="30.9412" fill="white" transform="translate(0 0.53125)"/>
</clipPath>
</defs>
</svg>
