<svg width="22" height="33" viewBox="0 0 22 33" fill="none" xmlns="http://www.w3.org/2000/svg">
<g clip-path="url(#clip0_285_5424)">
<path d="M5.30318 32.7124C8.22838 32.7124 10.6024 30.3234 10.6024 27.3797V22.0469H5.30318C2.37798 22.0469 0.00390625 24.436 0.00390625 27.3797C0.00390625 30.3234 2.37798 32.7124 5.30318 32.7124Z" fill="#0ACF83"/>
<path d="M0.00390625 16.7234C0.00390625 13.7797 2.37798 11.3906 5.30318 11.3906H10.6024V22.0562H5.30318C2.37798 22.0562 0.00390625 19.6671 0.00390625 16.7234Z" fill="#A259FF"/>
<path d="M0.00390625 6.05154C0.00390625 3.10784 2.37798 0.71875 5.30318 0.71875H10.6024V11.3843H5.30318C2.37798 11.3843 0.00390625 8.99523 0.00390625 6.05154Z" fill="#F24E1E"/>
<path d="M10.6016 0.71875H15.9008C18.826 0.71875 21.2001 3.10784 21.2001 6.05154C21.2001 8.99523 18.826 11.3843 15.9008 11.3843H10.6016V0.71875Z" fill="#FF7262"/>
<path d="M21.2001 16.7234C21.2001 19.6671 18.826 22.0562 15.9008 22.0562C12.9756 22.0562 10.6016 19.6671 10.6016 16.7234C10.6016 13.7797 12.9756 11.3906 15.9008 11.3906C18.826 11.3906 21.2001 13.7797 21.2001 16.7234Z" fill="#1ABCFE"/>
</g>
<defs>
<clipPath id="clip0_285_5424">
<rect width="21.2037" height="31.9967" fill="white" transform="translate(0 0.71875)"/>
</clipPath>
</defs>
</svg>
