<svg width="32" height="33" viewBox="0 0 32 33" fill="none" xmlns="http://www.w3.org/2000/svg">
<g clip-path="url(#clip0_285_5452)">
<path d="M24.5 0.71875H7.5C3.35787 0.71875 0 4.07662 0 8.21875V25.2188C0 29.3609 3.35787 32.7188 7.5 32.7188H24.5C28.6422 32.7188 32 29.3609 32 25.2188V8.21875C32 4.07662 28.6422 0.71875 24.5 0.71875Z" fill="#242938"/>
<path d="M28.5 23.5859C28.1361 23.7238 27.7344 23.7235 27.3706 23.5852C27.0069 23.4469 26.7065 23.1801 26.5261 22.8353C25.3933 21.1394 24.1423 19.5201 22.9399 17.8659L22.4185 17.1709C20.9868 19.0892 19.555 20.9309 18.2484 22.8423C18.0782 23.1718 17.794 23.4283 17.4488 23.5638C17.1035 23.6994 16.7208 23.7048 16.3719 23.5791L21.7444 16.3717L16.7471 9.85918C17.1069 9.72928 17.5004 9.72749 17.8613 9.85411C18.2222 9.98073 18.5283 10.228 18.728 10.5542C19.8886 12.2502 21.1745 13.8696 22.4533 15.5863C23.7391 13.8834 25.011 12.2571 26.1995 10.5751C26.3706 10.2509 26.655 10.0009 26.9984 9.87276C27.3419 9.74461 27.7205 9.74721 28.0621 9.88005L26.123 12.4517C25.2543 13.5984 24.3994 14.7522 23.4959 15.8712C23.423 15.9363 23.3648 16.0162 23.3249 16.1054C23.285 16.1946 23.2643 16.2913 23.2643 16.389C23.2643 16.4867 23.285 16.5834 23.3249 16.6726C23.3648 16.7618 23.423 16.8416 23.4959 16.9068C25.157 19.1101 26.8041 21.3202 28.5 23.5859ZM3.5 16.2813C3.646 15.5863 3.73625 14.8287 3.93788 14.1198C5.14025 9.84543 10.0401 8.06605 13.411 10.7142C15.3849 12.2642 15.8784 14.4604 15.7811 16.9347H4.66075C4.48 21.3551 7.67013 24.0239 11.7499 22.6617C12.4117 22.4249 13.0041 22.0271 13.4737 21.5041C13.9433 20.9811 14.2752 20.3494 14.4396 19.6661C14.6551 18.9711 15.0026 18.8529 15.6629 19.0544C15.5542 19.9006 15.255 20.711 14.788 21.4249C14.3209 22.1388 13.698 22.7375 12.9663 23.1759C11.7572 23.8372 10.37 24.0991 9.00312 23.9244C7.6362 23.7496 6.35955 23.1471 5.35575 22.2029C4.36266 21.0863 3.7622 19.6755 3.646 18.1857C3.646 17.9494 3.55563 17.7131 3.507 17.4907C3.5024 17.0876 3.50007 16.6844 3.5 16.2813ZM4.67463 15.9824H14.7316C14.669 12.7784 12.6465 10.5057 9.94988 10.4849C6.94738 10.4432 4.79975 12.6672 4.66763 15.9686L4.67463 15.9824Z" fill="white"/>
</g>
<defs>
<clipPath id="clip0_285_5452">
<rect width="32" height="32" fill="white" transform="translate(0 0.71875)"/>
</clipPath>
</defs>
</svg>
