<svg width="29" height="33" viewBox="0 0 29 33" fill="none" xmlns="http://www.w3.org/2000/svg">
<g clip-path="url(#clip0_285_5443)">
<path d="M3.13593 29.5169L0.708984 0.71875H27.386L24.9558 29.5124L14.0313 32.7155L3.13593 29.5169Z" fill="#1572B6"/>
<path d="M14.0469 30.2563L22.8751 27.668L24.9519 3.0625H14.0469V30.2563Z" fill="#33A9DC"/>
<path d="M14.0469 13.4927H18.4664L18.7711 9.87596H14.0469V6.34375H22.4213L22.3413 7.29108L21.5211 17.0249H14.0469V13.4927Z" fill="white"/>
<path d="M14.0673 22.6719L14.0522 22.6765L10.3329 21.6137L10.0952 18.7969H6.74219L7.21007 24.3426L14.0511 26.3515L14.0673 26.347V22.6719Z" fill="#EBEBEB"/>
<path d="M18.1833 16.875L17.7813 21.6048L14.0566 22.6675V26.3426L20.9031 24.3359L20.9539 23.7394L21.5342 16.875H18.1833Z" fill="white"/>
<path d="M14.0582 6.34375V9.87596H5.99072L5.92373 9.08175L5.77137 7.29108L5.69141 6.34375H14.0582ZM14.0463 13.4927V17.0249H10.3735L10.3065 16.2307L10.1552 14.4401L10.0753 13.4927H14.0463Z" fill="#EBEBEB"/>
</g>
<defs>
<clipPath id="clip0_285_5443">
<rect y="0.71875" width="28.0947" height="31.9967" rx="1.56082" fill="white"/>
</clipPath>
</defs>
</svg>
