<svg width="29" height="33" viewBox="0 0 29 33" fill="none" xmlns="http://www.w3.org/2000/svg">
<path d="M27.1953 7.80858L15.5263 1.03311C14.7904 0.613962 13.8322 0.613962 13.0905 1.03311L1.2969 7.80858C0.537444 8.24546 0 9.06656 0 9.94482V23.4778C0 24.356 0.551469 25.1774 1.31093 25.6167L4.42683 27.3864C5.91611 28.1199 6.44244 28.1199 7.12014 28.1199C9.32522 28.1199 10.5848 26.7865 10.5848 24.4608V11.1004C10.5848 10.9117 10.4866 10.631 10.3014 10.631H8.81344C8.62503 10.631 8.20323 10.9117 8.20323 11.1001V24.4605C8.20323 25.4915 7.2707 26.5174 5.52792 25.646L2.30828 23.7903C2.19608 23.7294 2.11696 23.6069 2.11696 23.4778V9.94482C2.11696 9.81728 2.26383 9.6892 2.37682 9.62384L14.1323 2.86002C14.2421 2.79783 14.4035 2.79783 14.5131 2.86002L26.1252 9.62225C26.2363 9.6892 26.1971 9.81331 26.1971 9.94482V23.4778C26.1971 23.6069 26.2456 23.7326 26.1357 23.7948L14.4697 30.5626C14.3697 30.6226 14.2456 30.6226 14.136 30.5626L11.1439 28.7767C11.0537 28.7243 10.9465 28.7055 10.86 28.7539C10.0275 29.2257 9.87404 29.2884 9.09314 29.5591C8.90103 29.6261 8.61762 29.7423 9.20164 30.0696L13.1175 32.386C13.4913 32.602 13.9154 32.7157 14.3472 32.7157C14.7817 32.7157 15.2072 32.603 15.5822 32.386L27.195 25.6167C27.9545 25.1742 28.3144 24.356 28.3144 23.4778V9.94482C28.3144 9.06656 27.9545 8.24758 27.1953 7.80858ZM17.9704 21.3333C14.8674 21.3333 14.1839 20.4773 13.9561 18.9343C13.9296 18.7681 13.7886 18.5694 13.6195 18.5694H12.1029C11.9153 18.5694 11.7645 18.797 11.7645 18.9838C11.7645 20.9594 12.8386 23.3531 17.9706 23.3531C21.6856 23.3531 23.8156 21.9097 23.8156 19.3551C23.8156 16.8222 22.1043 16.1575 18.5014 15.6806C14.8597 15.1993 14.4898 14.9561 14.4898 14.103C14.4898 13.3996 14.8031 12.4616 17.4996 12.4616C19.909 12.4616 20.797 12.9786 21.1625 14.6026C21.1937 14.7553 21.3331 14.8648 21.4906 14.8648H23.0132C23.1069 14.8648 23.1963 14.827 23.262 14.76C23.3255 14.688 23.3591 14.5978 23.3506 14.501C23.1148 11.7045 21.2569 10.4013 17.4993 10.4013C14.1569 10.4013 12.163 11.8127 12.163 14.1787C12.163 16.7449 14.1469 17.4541 17.3554 17.7713C21.1937 18.1476 21.4922 18.7086 21.4922 19.4636C21.4922 20.7747 20.4395 21.3333 17.9704 21.3333Z" fill="#83CD29"/>
</svg>
