<svg width="32" height="24" viewBox="0 0 32 24" fill="none" xmlns="http://www.w3.org/2000/svg">
<g clip-path="url(#clip0_285_5457)">
<path d="M31.3394 9.24961C30.6188 8.74961 28.9674 8.56211 27.6764 8.81211C27.5264 7.56211 26.8358 6.46849 25.6348 5.49974L24.9443 4.99974L24.4638 5.71849C23.8634 6.65599 23.5632 7.96848 23.6532 9.21848C23.6832 9.65586 23.8333 10.4371 24.2837 11.1246C23.8634 11.3746 22.9927 11.6871 21.8518 11.6871H0.144341L0.0843409 11.9371C-0.125909 13.187 -0.125909 17.0931 2.33609 20.093C4.19758 22.3741 6.95983 23.5303 10.5927 23.5303C18.4589 23.5303 24.2837 19.7491 27.0159 12.9057C28.0968 12.937 30.4087 12.9057 31.5797 10.562C31.6097 10.4995 31.6697 10.3745 31.8798 9.90586L31.9999 9.65586L31.3394 9.24961ZM17.4982 0.4375H14.1957V3.56237H17.4982V0.4375ZM17.4982 4.18737H14.1957V7.31224H17.4982V4.18724V4.18737ZM13.5951 4.18737H10.2926V7.31224H13.5951V4.18724V4.18737ZM9.69195 4.18737H6.38933V7.31224H9.69195V4.18724V4.18737ZM5.78883 7.93723H2.48621V11.0621H5.78871V7.93711L5.78883 7.93723ZM9.69195 7.93723H6.38933V11.0621H9.69195V7.93723ZM13.5951 7.93723H10.2926V11.0621H13.5951V7.93723ZM17.4983 7.93723H14.1956V11.0621H17.4983V7.93723ZM21.4014 7.93723H18.0987V11.0621H21.4014V7.93723Z" fill="#33A9DC"/>
<path fill-rule="evenodd" clip-rule="evenodd" d="M30.9122 9.90313L30.8945 9.89085C30.6903 9.74916 30.2484 9.5974 29.6306 9.52475C29.0365 9.45487 28.3823 9.47039 27.8248 9.57836L27.0014 9.73781L26.9015 8.9051C26.7825 7.91359 26.2383 6.99384 25.1602 6.11969L25.1428 6.10712L25.1171 6.14554C24.6226 6.9215 24.3522 8.05839 24.4316 9.16243L24.4318 9.16507C24.456 9.51704 24.582 10.1557 24.9365 10.6969L25.3832 11.3787L24.6827 11.7954C24.1332 12.1222 23.1229 12.4676 21.8518 12.4676H0.80638C0.7558 13.0904 0.763494 14.0807 0.975353 15.2156C1.23992 16.6327 1.81364 18.2261 2.9394 19.5978L2.94078 19.5995C4.62075 21.6582 7.13596 22.7498 10.5927 22.7498C18.1662 22.7498 23.6868 19.1392 26.2911 12.6163L26.4933 12.1098L27.0385 12.1256C28.109 12.1565 29.9377 12.0954 30.8788 10.2184C30.8963 10.1819 30.9273 10.1172 31.0002 9.95728L30.9122 9.90313ZM31.9999 9.65586L31.8798 9.90586C31.6697 10.3745 31.6097 10.4995 31.5797 10.562C30.4087 12.9057 28.0968 12.937 27.0159 12.9057C24.2837 19.7491 18.4589 23.5303 10.5927 23.5303C6.95983 23.5303 4.19758 22.3741 2.33609 20.093C-0.125909 17.0931 -0.125909 13.187 0.0843409 11.9371L0.144341 11.6871H21.8518C21.9645 11.6871 22.0746 11.6841 22.1819 11.6783C22.7178 11.6496 23.1835 11.5539 23.5574 11.4361C23.8662 11.3388 24.1124 11.2265 24.2837 11.1246C24.2285 11.0404 24.1779 10.9548 24.1314 10.8686C23.7983 10.2509 23.6795 9.6023 23.6532 9.21848C23.5632 7.96848 23.8634 6.65599 24.4638 5.71849L24.9443 4.99974L25.6348 5.49974C26.6415 6.31173 27.2896 7.21146 27.5613 8.21746C27.6137 8.41167 27.6521 8.60984 27.6764 8.81211C27.9243 8.7641 28.1856 8.73222 28.4509 8.7156C29.5674 8.64565 30.7572 8.84563 31.3394 9.24961L31.9999 9.65586ZM2.48621 7.93723V11.0621H5.78871V7.93736L2.48621 7.93723ZM5.00822 10.2816V8.71772H3.2667V10.2816H5.00822ZM6.38933 7.93723V11.0621H9.69195V7.93723H6.38933ZM7.16982 8.71772V10.2816H8.91146V8.71772H7.16982ZM9.69195 7.31224V4.18737H6.38933V7.31224H9.69195ZM8.91146 6.53175H7.16982V4.96785H8.91146V6.53175ZM10.2926 4.18737V7.31224H13.5951V4.18737H10.2926ZM11.0731 4.96785H12.8146V6.53175H11.0731V4.96785ZM14.1957 4.18737V7.31224H17.4982V4.18737H14.1957ZM14.9762 4.96785H16.7177V6.53175H14.9762V4.96785ZM17.4982 3.56237V0.4375H14.1957V3.56237H17.4982ZM16.7177 2.78188V1.21799H14.9762V2.78188H16.7177ZM14.1957 7.93723L14.1956 11.0621H17.4983V7.93723H14.1957ZM16.7178 8.71772V10.2816H14.9761V8.71772H16.7178ZM18.0987 11.0621H21.4014V7.93723H18.0987V11.0621ZM18.8792 10.2816V8.71772H20.6209V10.2816H18.8792ZM13.5951 7.93723H10.2926V11.0621H13.5951V7.93723ZM12.8146 8.71772V10.2816H11.0731V8.71772H12.8146Z" fill="#BEE0EF"/>
</g>
<defs>
<clipPath id="clip0_285_5457">
<rect width="31.9999" height="23.1249" fill="white" transform="translate(0 0.4375)"/>
</clipPath>
</defs>
</svg>
