<svg width="32" height="32" viewBox="0 0 32 32" fill="none" xmlns="http://www.w3.org/2000/svg">
<rect width="32" height="32" rx="6.15385" fill="black"/>
<path d="M20.8066 10.7578H22.2836V21.0963H20.8066V10.7578Z" fill="white"/>
<path d="M13.7468 21.244C12.3979 21.244 11.3887 20.924 10.7192 20.284C10.0496 19.644 9.71484 18.679 9.71484 17.3892V10.7578H11.177V17.596C11.177 18.4427 11.3887 19.0729 11.8121 19.4864C12.2355 19.8901 12.8804 20.092 13.7468 20.092C14.6232 20.092 15.2681 19.8901 15.6816 19.4864C16.0952 19.0827 16.3019 18.4526 16.3019 17.596V10.7578H17.7641V17.3892C17.7641 18.7086 17.4342 19.6834 16.7745 20.3135C16.1247 20.9338 15.1155 21.244 13.7468 21.244Z" fill="white"/>
</svg>
