<svg width="28" height="32" viewBox="0 0 28 32" fill="none" xmlns="http://www.w3.org/2000/svg">
<path fill-rule="evenodd" clip-rule="evenodd" d="M27.4406 8.81917V27.4374C27.4406 28.477 27.0276 29.474 26.2924 30.209C25.5573 30.9441 24.5602 31.3571 23.5205 31.3571V29.3973C24.0403 29.3973 24.5389 29.1908 24.9065 28.8232C25.274 28.4557 25.4805 27.9572 25.4805 27.4374V8.81917H21.5605C20.7807 8.81917 20.0329 8.50946 19.4815 7.95815C18.9302 7.40684 18.6204 6.65911 18.6204 5.87945V1.95982H7.84017C7.32033 1.95982 6.82179 2.1663 6.45421 2.53383C6.08663 2.90137 5.88013 3.39986 5.88013 3.91963V21.558H3.92008V3.91963C3.92008 2.88008 4.33309 1.88311 5.06825 1.14803C5.80341 0.41296 6.8005 0 7.84017 0L18.6204 0L27.4406 8.81917ZM0 29.0856C0.0111001 29.3945 0.0867734 29.6975 0.222145 29.9753C0.357517 30.2531 0.549585 30.4995 0.785977 30.6986C1.04078 30.9102 1.35047 31.0749 1.72288 31.1924C2.09528 31.31 2.52845 31.3708 3.0263 31.3708C3.6888 31.3708 4.24937 31.2669 4.70802 31.0611C5.17255 30.8534 5.5234 30.5673 5.76644 30.1988C6.01362 29.8162 6.14122 29.3686 6.13297 28.9132C6.13297 28.4742 6.04477 28.1096 5.86837 27.8157C5.68904 27.522 5.43554 27.2807 5.13335 27.116C4.78679 26.9244 4.41352 26.7857 4.02593 26.7045L2.80874 26.4222C2.52113 26.3698 2.24949 26.2518 2.01492 26.0773C1.92574 26.0083 1.85395 25.9193 1.80528 25.8176C1.75661 25.7158 1.73242 25.6041 1.73464 25.4913C1.73464 25.1856 1.8542 24.9347 2.09528 24.7388C2.34029 24.5408 2.67546 24.4409 3.10079 24.4409C3.38107 24.4409 3.62216 24.484 3.826 24.5741C4.01292 24.6509 4.17791 24.7728 4.30621 24.9289C4.42684 25.0744 4.50786 25.2485 4.54142 25.4345H6.01145C5.98756 25.0356 5.85244 24.6513 5.6214 24.3252C5.37367 23.9735 5.0349 23.6957 4.64138 23.5217C4.16007 23.3106 3.63792 23.2089 3.11255 23.2238C2.53825 23.2238 2.0306 23.3218 1.59155 23.5178C1.15054 23.7118 0.807537 23.9882 0.556652 24.3429C0.307727 24.6996 0.184244 25.117 0.184244 25.5952C0.184244 25.9891 0.262646 26.3321 0.425329 26.6221C0.586053 26.9142 0.815377 27.1513 1.1133 27.3414C1.41319 27.5276 1.76404 27.6687 2.17173 27.7588L3.38303 28.0411C3.78876 28.1371 4.08865 28.2625 4.28857 28.4193C4.38632 28.4933 4.46467 28.5899 4.5169 28.7009C4.56913 28.8118 4.59368 28.9337 4.58846 29.0562C4.58846 29.2718 4.53162 29.4619 4.42185 29.6246C4.29548 29.7978 4.12099 29.93 3.92008 30.0048C3.70252 30.0969 3.43203 30.142 3.11059 30.142C2.88126 30.142 2.67154 30.1165 2.48337 30.0636C2.31006 30.0157 2.14583 29.9395 1.99728 29.8382C1.86688 29.7537 1.75522 29.6433 1.66925 29.5138C1.58327 29.3843 1.52481 29.2386 1.49747 29.0856H0ZM13.4812 32.0038L12.4874 30.5555C12.8324 30.238 13.095 29.846 13.2734 29.3796C13.4537 28.9112 13.5439 28.386 13.5439 27.8V26.8181C13.5439 26.091 13.4067 25.46 13.1362 24.923C12.8829 24.4026 12.4812 23.9689 11.9817 23.6765C11.48 23.3826 10.8822 23.2356 10.1844 23.2356C9.4964 23.2356 8.89859 23.3826 8.3929 23.6765C7.89113 23.9686 7.505 24.3821 7.23255 24.923C6.9524 25.5146 6.81479 26.1637 6.83075 26.8181V27.798C6.83075 28.5232 6.96599 29.1523 7.23255 29.6893C7.505 30.2243 7.89113 30.6398 8.3929 30.9357C8.94094 31.2369 9.55921 31.3871 10.1844 31.3708C10.5847 31.3726 10.9824 31.3064 11.3604 31.1748L11.9367 32.0018L13.4812 32.0038ZM8.3537 27.8294V26.8064C8.3537 26.3243 8.42818 25.9127 8.57714 25.5717C8.71013 25.2559 8.93129 24.9851 9.21416 24.7917C9.50369 24.6076 9.84134 24.5134 10.1844 24.5212C10.5607 24.5212 10.8841 24.6114 11.1546 24.7917C11.4398 24.9825 11.6616 25.2541 11.7916 25.5717C11.9425 25.9127 12.017 26.3243 12.017 26.8064V27.8294C12.017 28.1508 11.9817 28.4409 11.9131 28.7015C11.8445 28.9563 11.7426 29.1797 11.6093 29.3679L11.4016 29.0935L11.1958 28.8054H9.75905L10.643 30.0793C10.4869 30.1428 10.3196 30.1741 10.1511 30.1714C9.81131 30.1723 9.47899 30.072 9.19652 29.8833C8.91597 29.6848 8.69828 29.41 8.5693 29.0915C8.41503 28.6891 8.34176 28.2602 8.3537 27.8294ZM16.1664 29.9009H19.4907V31.2218H14.616V23.3845H16.1645V29.9009H16.1664Z" fill="#FCFFFF"/>
</svg>
