<svg width="32" height="32" viewBox="0 0 32 32" fill="none" xmlns="http://www.w3.org/2000/svg">
<g clip-path="url(#clip0_285_5460)">
<path d="M0 3.56379C0 1.59988 1.59207 0.0078125 3.55598 0.0078125H28.4478C30.4117 0.0078125 32.0038 1.59988 32.0038 3.56379V28.4556C32.0038 30.4195 30.4117 32.0116 28.4478 32.0116H3.55598C1.59207 32.0116 0 30.4196 0 28.4556V3.56379Z" fill="#F5DE19"/>
<path d="M21.4982 25.0073C21.7709 25.5612 22.1945 26.0267 22.7203 26.3503C23.2461 26.6739 23.8526 26.8422 24.47 26.8361C25.7158 26.8361 26.5125 26.2131 26.5125 25.3502C26.5125 24.3215 25.6941 23.9534 24.3225 23.3534L23.5704 23.031C21.3988 22.1064 19.9586 20.9485 19.9586 18.5002C19.9586 16.2451 21.6731 14.5272 24.3625 14.5272C25.2332 14.4643 26.103 14.6592 26.8636 15.0874C27.6242 15.5157 28.2419 16.1584 28.6396 16.9355L26.2885 18.4385C26.1353 18.0532 25.8687 17.7236 25.5239 17.4933C25.1791 17.2631 24.7725 17.1431 24.358 17.1492C24.1771 17.1311 23.9944 17.1509 23.8216 17.2072C23.6488 17.2636 23.4897 17.3554 23.3543 17.4767C23.2189 17.598 23.1103 17.7461 23.0353 17.9117C22.9604 18.0773 22.9207 18.2567 22.9189 18.4385C22.9189 19.3403 23.4779 19.7061 24.7683 20.2673L25.5204 20.5896C28.0761 21.6857 29.5209 22.8024 29.5209 25.3136C29.5209 28.0213 27.3938 29.505 24.5374 29.505C23.4245 29.5759 22.3148 29.3232 21.3423 28.7774C20.3698 28.2316 19.576 27.4161 19.0568 26.4292L21.4982 25.0073ZM10.8741 25.2679C11.3461 26.1057 11.7759 26.8143 12.8092 26.8143C13.7967 26.8143 14.4208 26.428 14.4208 24.925V14.6986H17.428V24.965C17.428 28.0785 15.5992 29.4958 12.9372 29.4958C11.9962 29.5472 11.0617 29.3127 10.2565 28.8231C9.4513 28.3335 8.81309 27.6117 8.42578 26.7526L10.8741 25.2679Z" fill="black"/>
</g>
<defs>
<clipPath id="clip0_285_5460">
<rect width="32.0038" height="32.0038" fill="white"/>
</clipPath>
</defs>
</svg>
