<svg width="32" height="36" viewBox="0 0 32 36" fill="none" xmlns="http://www.w3.org/2000/svg">
<path d="M14.3865 15.1762C13.8363 15.4939 13.3927 15.9675 13.1118 16.5373C12.8308 17.1071 12.7251 17.7474 12.808 18.3772C12.8909 19.0071 13.1588 19.5982 13.5776 20.0758C13.9964 20.5535 14.5475 20.8962 15.1611 21.0607C15.7748 21.2251 16.4234 21.204 17.025 20.9998C17.6265 20.7957 18.1541 20.4178 18.5409 19.9138C18.9277 19.4099 19.1564 18.8025 19.1981 18.1686C19.2397 17.5347 19.0925 16.9027 18.775 16.3524C18.5641 15.987 18.2833 15.6667 17.9486 15.4098C17.6139 15.1529 17.2319 14.9645 16.8244 14.8553C16.4169 14.746 15.9918 14.7182 15.5735 14.7732C15.1552 14.8283 14.7519 14.9652 14.3865 15.1762ZM28.7839 18.6618C28.5729 18.4208 28.3505 18.1792 28.1167 17.937C28.2797 17.7643 28.438 17.5923 28.5915 17.4208C31.4782 14.1762 32.6976 10.9208 31.5681 8.96579C30.4854 7.0899 27.2641 6.53055 23.23 7.31472C22.8331 7.39265 22.438 7.48018 22.0447 7.57731C21.9692 7.31831 21.8895 7.06052 21.8055 6.80393C20.4368 2.67985 18.2264 -0.00179765 15.9674 9.04145e-07C13.802 9.04145e-07 11.7085 2.51258 10.3721 6.39925C10.2402 6.78295 10.1185 7.16904 10.007 7.55752C9.74443 7.49277 9.48064 7.43282 9.21565 7.37767C4.96028 6.50537 1.53403 7.08091 0.406339 9.03953C-0.674592 10.9154 0.4549 13.9856 3.15453 17.0827C3.42311 17.3884 3.69889 17.6882 3.98186 17.9819C3.64733 18.3237 3.33259 18.6672 3.03762 19.0089C0.402742 22.0629 -0.662002 25.0808 0.41713 26.9495C1.53223 28.8812 4.90992 29.5125 9.02321 28.7031C9.35654 28.6372 9.68808 28.5628 10.0178 28.4801C10.1377 28.901 10.2702 29.3188 10.4153 29.7337C11.7462 33.5412 13.8271 35.9711 15.9854 35.9711C18.2156 35.9711 20.4494 33.3578 21.8037 29.3902C21.9116 29.0772 22.0106 28.7517 22.1077 28.4171C22.5333 28.5227 22.962 28.6162 23.3937 28.6977C27.3559 29.4477 30.5015 28.8596 31.5789 26.9891C32.6922 25.0557 31.5429 21.8147 28.7839 18.6618ZM1.73727 9.80571C2.43151 8.60068 5.23186 8.12946 8.9063 8.88486C9.14131 8.93282 9.38052 8.98677 9.62393 9.04673C9.26474 10.6337 9.01119 12.2427 8.86494 13.8633C7.53986 14.795 6.27643 15.8115 5.08258 16.9064C4.81999 16.6342 4.564 16.3554 4.3146 16.0701C1.99986 13.419 1.08619 10.937 1.73727 9.80571ZM8.72825 20.1078C7.81098 19.4118 6.95667 18.6996 6.18149 17.9837C6.95487 17.2715 7.80919 16.5629 8.72645 15.8686C8.69287 16.5749 8.67669 17.2817 8.67789 17.9891C8.67789 18.6966 8.69467 19.4028 8.72825 20.1078ZM8.72825 27.1941C7.1693 27.5413 5.55976 27.5986 3.98007 27.3632C3.547 27.3293 3.12548 27.207 2.74157 27.0037C2.35766 26.8005 2.01952 26.5207 1.74806 26.1815C1.09159 25.0485 1.9477 22.624 4.20129 20.0125C4.48426 19.6852 4.77682 19.3662 5.07898 19.0557C6.27338 20.1573 7.53933 21.1787 8.86853 22.1132C9.01625 23.7542 9.2722 25.3836 9.63472 26.9909C9.33496 27.0664 9.0322 27.1348 8.72645 27.1959L8.72825 27.1941ZM21.498 12.7356C20.8949 12.3555 20.2846 11.988 19.667 11.633C19.0579 11.2829 18.4422 10.9454 17.8199 10.6205C18.843 10.1884 19.8868 9.8072 20.9476 9.47838C21.1857 10.5542 21.3694 11.6413 21.498 12.7356ZM11.8272 6.89745C12.971 3.57013 14.6653 1.53776 15.971 1.53776C17.3613 1.53597 19.1671 3.7284 20.3487 7.28774C20.4254 7.52035 20.4974 7.75416 20.5645 7.98918C19.0133 8.46991 17.4956 9.05272 16.0214 9.73377C14.552 9.04437 13.0378 8.45491 11.489 7.96939C11.5933 7.60968 11.7061 7.25237 11.8272 6.89745ZM11.1077 9.45859C12.1636 9.79093 13.2021 10.1763 14.2192 10.6133C12.9578 11.2631 11.73 11.9712 10.5358 12.7374C10.6797 11.5899 10.8721 10.491 11.1077 9.45859ZM10.5376 23.2355C11.1335 23.618 11.7384 23.9855 12.3523 24.338C12.9782 24.6977 13.6119 25.0431 14.2534 25.374C13.229 25.8261 12.1821 26.2253 11.1167 26.57C10.8692 25.4693 10.6759 24.357 10.5376 23.2373V23.2355ZM20.3505 28.8938C19.872 30.4172 19.1172 31.8396 18.1239 33.0898C17.8786 33.4482 17.5625 33.7525 17.195 33.9839C16.8275 34.2153 16.4164 34.3688 15.9872 34.4351C14.6761 34.4351 13.0052 32.4837 11.8685 29.2265C11.7342 28.8416 11.6107 28.4531 11.498 28.061C13.0541 27.5591 14.5744 26.9522 16.0484 26.2445C17.5351 26.9311 19.0654 27.5192 20.6293 28.0053C20.5429 28.3038 20.45 28.6 20.3505 28.8938ZM21.0016 26.5125C19.927 26.1769 18.8694 25.7891 17.8325 25.3506C18.4428 25.0305 19.0573 24.6917 19.676 24.3344C20.3115 23.9675 20.9302 23.5916 21.5322 23.2067C21.4119 24.317 21.2349 25.4204 21.0016 26.5125ZM21.8055 17.9819C21.8055 19.0743 21.7714 20.1654 21.703 21.2553C20.8163 21.856 19.8811 22.4424 18.9081 23.0035C17.9368 23.5629 16.9782 24.0772 16.0358 24.5431C15.0442 24.0682 14.0717 23.5563 13.1185 23.0071C12.1713 22.4615 11.2456 21.8806 10.3415 21.2643C10.2576 20.1732 10.2157 19.0809 10.2157 17.9873C10.2157 16.895 10.2564 15.8033 10.338 14.7122C12.146 13.4778 14.0446 12.3817 16.0178 11.4334C16.9962 11.9094 17.9572 12.4196 18.9009 12.964C19.8481 13.5083 20.7774 14.0833 21.6886 14.6888C21.7666 15.7847 21.8055 16.8824 21.8055 17.9819ZM23.5249 8.82191C26.9818 8.15105 29.5861 8.60248 30.2389 9.73377C30.935 10.9388 29.9386 13.5971 27.444 16.3992C27.3061 16.5539 27.1634 16.7092 27.0159 16.865C25.801 15.7667 24.5126 14.7524 23.1598 13.8291C23.0236 12.2265 22.7803 10.6348 22.4314 9.06471C22.8031 8.97358 23.1676 8.89265 23.5249 8.82191ZM23.2911 15.8093C24.204 16.4756 25.0817 17.1887 25.9206 17.946C25.0856 18.7153 24.2109 19.4405 23.3001 20.1186C23.3277 19.4064 23.3415 18.6942 23.3415 17.9819C23.3415 17.2577 23.3247 16.5335 23.2911 15.8093ZM30.2497 26.2211C29.5951 27.356 27.0699 27.829 23.6796 27.1887C23.2911 27.1156 22.8931 27.0281 22.4854 26.9261C22.8258 25.3358 23.0584 23.7242 23.1814 22.1024C24.5318 21.1636 25.816 20.133 27.0249 19.0179C27.2372 19.2373 27.4386 19.4556 27.6292 19.6726C28.7103 20.8481 29.5657 22.2125 30.1526 23.6977C30.3405 24.0894 30.446 24.5153 30.4627 24.9494C30.4794 25.3834 30.4069 25.8162 30.2497 26.2211Z" fill="#00DCFE" fill-opacity="0.96"/>
</svg>
