<svg width="141" height="56" viewBox="0 0 141 56" fill="none" xmlns="http://www.w3.org/2000/svg">
<rect x="0.5" y="0.5" width="140" height="55" rx="15.5" fill="#FCFFFF"/>
<rect x="0.5" y="0.5" width="140" height="55" rx="15.5" stroke="#767B7C"/>
<path d="M49.0909 20.7273H46.1818V14.9091C46.1818 14.1376 45.8753 13.3976 45.3298 12.8521C44.7842 12.3065 44.0443 12 43.2727 12H28.7273C27.9557 12 27.2158 12.3065 26.6702 12.8521C26.1247 13.3976 25.8182 14.1376 25.8182 14.9091V17.8182H22.9091C22.1376 17.8182 21.3976 18.1247 20.8521 18.6702C20.3065 19.2158 20 19.9557 20 20.7273V26.5455C20 27.317 20.3065 28.0569 20.8521 28.6025C21.3976 29.1481 22.1376 29.4545 22.9091 29.4545H25.8182V41.0909C25.8182 41.8624 26.1247 42.6024 26.6702 43.1479C27.2158 43.6935 27.9557 44 28.7273 44H43.2727C44.0443 44 44.7842 43.6935 45.3298 43.1479C45.8753 42.6024 46.1818 41.8624 46.1818 41.0909V38.1818H49.0909C49.8624 38.1818 50.6024 37.8753 51.1479 37.3298C51.6935 36.7842 52 36.0443 52 35.2727V23.6364C52 22.8648 51.6935 22.1249 51.1479 21.5793C50.6024 21.0338 49.8624 20.7273 49.0909 20.7273ZM43.2727 41.0909H28.7273V29.4545H31.6364C32.4079 29.4545 33.1478 29.1481 33.6934 28.6025C34.239 28.0569 34.5455 27.317 34.5455 26.5455V20.7273C34.5455 19.9557 34.239 19.2158 33.6934 18.6702C33.1478 18.1247 32.4079 17.8182 31.6364 17.8182H28.7273V14.9091H43.2727V20.7273H40.3636C39.5921 20.7273 38.8522 21.0338 38.3066 21.5793C37.761 22.1249 37.4545 22.8648 37.4545 23.6364V35.2727C37.4545 36.0443 37.761 36.7842 38.3066 37.3298C38.8522 37.8753 39.5921 38.1818 40.3636 38.1818H43.2727V41.0909ZM49.0909 35.2727H40.3636V23.6364H49.0909V35.2727Z" fill="#1E7B9D"/>
<path d="M64.116 23.2C65.3947 23.2 66.3607 23.466 67.014 23.998C67.6767 24.53 68.008 25.314 68.008 26.35C68.008 27.4047 67.6767 28.2073 67.014 28.758C66.3513 29.3087 65.3853 29.584 64.116 29.584H62.548V33H61.162V23.2H64.116ZM64.074 28.464C64.9607 28.464 65.6047 28.296 66.006 27.96C66.4073 27.624 66.608 27.0873 66.608 26.35C66.608 25.622 66.4073 25.0947 66.006 24.768C65.6047 24.432 64.9607 24.264 64.074 24.264H62.548V28.464H64.074ZM73.0373 25.202C73.7746 25.202 74.1433 25.4773 74.1433 26.028C74.1433 26.252 74.0826 26.434 73.9613 26.574C73.7186 26.4527 73.4013 26.392 73.0093 26.392C72.3933 26.392 71.9079 26.6207 71.5533 27.078C71.2079 27.526 71.0353 28.1467 71.0353 28.94V33H69.7053V25.3H71.0353V26.588C71.2406 26.168 71.5206 25.832 71.8753 25.58C72.2393 25.328 72.6266 25.202 73.0373 25.202ZM78.2745 33.14C77.1732 33.14 76.3378 32.7993 75.7685 32.118C75.1992 31.4367 74.9145 30.4427 74.9145 29.136C74.9145 27.8293 75.1992 26.84 75.7685 26.168C76.3378 25.496 77.1732 25.16 78.2745 25.16C79.3758 25.16 80.2112 25.496 80.7805 26.168C81.3592 26.84 81.6485 27.8293 81.6485 29.136C81.6485 30.4427 81.3592 31.4367 80.7805 32.118C80.2112 32.7993 79.3758 33.14 78.2745 33.14ZM78.2745 32.174C78.9745 32.174 79.4832 31.9313 79.8005 31.446C80.1272 30.9607 80.2905 30.1907 80.2905 29.136C80.2905 28.0907 80.1272 27.33 79.8005 26.854C79.4832 26.3687 78.9745 26.126 78.2745 26.126C77.5745 26.126 77.0612 26.3687 76.7345 26.854C76.4172 27.33 76.2585 28.0907 76.2585 29.136C76.2585 30.1907 76.4218 30.9607 76.7485 31.446C77.0752 31.9313 77.5838 32.174 78.2745 32.174ZM87.0901 31.922C87.1648 31.9593 87.2254 32.0247 87.2721 32.118C87.3188 32.202 87.3421 32.3 87.3421 32.412C87.3421 32.5987 87.2721 32.734 87.1321 32.818C86.9921 32.9207 86.7961 33 86.5441 33.056C86.3014 33.112 86.0354 33.14 85.7461 33.14C85.1208 33.14 84.6214 32.972 84.2481 32.636C83.8748 32.2907 83.6881 31.8333 83.6881 31.264V26.238H82.3301V25.3H83.6881V23.2H85.0181V25.3H86.8521V26.238H85.0181V31.082C85.0181 31.4553 85.0928 31.7307 85.2421 31.908C85.3914 32.076 85.6201 32.16 85.9281 32.16C86.3014 32.16 86.6888 32.0807 87.0901 31.922ZM91.4132 33.14C90.3118 33.14 89.4765 32.7993 88.9072 32.118C88.3378 31.4367 88.0532 30.4427 88.0532 29.136C88.0532 27.8293 88.3378 26.84 88.9072 26.168C89.4765 25.496 90.3118 25.16 91.4132 25.16C92.5145 25.16 93.3498 25.496 93.9192 26.168C94.4978 26.84 94.7872 27.8293 94.7872 29.136C94.7872 30.4427 94.4978 31.4367 93.9192 32.118C93.3498 32.7993 92.5145 33.14 91.4132 33.14ZM91.4132 32.174C92.1132 32.174 92.6218 31.9313 92.9392 31.446C93.2658 30.9607 93.4292 30.1907 93.4292 29.136C93.4292 28.0907 93.2658 27.33 92.9392 26.854C92.6218 26.3687 92.1132 26.126 91.4132 26.126C90.7132 26.126 90.1998 26.3687 89.8732 26.854C89.5558 27.33 89.3972 28.0907 89.3972 29.136C89.3972 30.1907 89.5605 30.9607 89.8872 31.446C90.2138 31.9313 90.7225 32.174 91.4132 32.174ZM100.229 31.922C100.303 31.9593 100.364 32.0247 100.411 32.118C100.457 32.202 100.481 32.3 100.481 32.412C100.481 32.5987 100.411 32.734 100.271 32.818C100.131 32.9207 99.9348 33 99.6828 33.056C99.4401 33.112 99.1741 33.14 98.8848 33.14C98.2594 33.14 97.7601 32.972 97.3868 32.636C97.0134 32.2907 96.8268 31.8333 96.8268 31.264V26.238H95.4688V25.3H96.8268V23.2H98.1568V25.3H99.9908V26.238H98.1568V31.082C98.1568 31.4553 98.2314 31.7307 98.3808 31.908C98.5301 32.076 98.7588 32.16 99.0668 32.16C99.4401 32.16 99.8274 32.0807 100.229 31.922ZM107.618 25.3L104.636 33.588C104.346 34.3813 103.996 34.9507 103.586 35.296C103.184 35.6413 102.657 35.814 102.004 35.814C101.612 35.814 101.299 35.744 101.066 35.604C100.832 35.4733 100.716 35.3007 100.716 35.086C100.716 34.8713 100.809 34.6753 100.996 34.498C101.098 34.5727 101.238 34.6287 101.416 34.666C101.593 34.7127 101.77 34.736 101.948 34.736C102.321 34.736 102.629 34.5867 102.872 34.288C103.124 33.9987 103.348 33.5273 103.544 32.874L100.8 25.3H102.186L104.216 31.166L106.232 25.3H107.618ZM112.405 25.16C113.432 25.16 114.216 25.496 114.757 26.168C115.299 26.84 115.569 27.8153 115.569 29.094C115.569 29.906 115.425 30.62 115.135 31.236C114.846 31.8427 114.431 32.314 113.889 32.65C113.357 32.9767 112.732 33.14 112.013 33.14C111.369 33.14 110.758 33.028 110.179 32.804V36.122H108.849V28.03C108.849 26.6767 108.761 25.846 108.583 25.538C108.761 25.4447 108.943 25.3747 109.129 25.328C109.316 25.272 109.479 25.244 109.619 25.244C109.927 25.244 110.109 25.5193 110.165 26.07C110.791 25.4633 111.537 25.16 112.405 25.16ZM111.915 32.174C112.643 32.174 113.203 31.908 113.595 31.376C113.997 30.844 114.197 30.0833 114.197 29.094C114.197 28.0953 114.034 27.3533 113.707 26.868C113.39 26.3733 112.905 26.126 112.251 26.126C111.869 26.126 111.495 26.2147 111.131 26.392C110.767 26.5693 110.45 26.812 110.179 27.12V31.81C110.422 31.922 110.693 32.0107 110.991 32.076C111.299 32.1413 111.607 32.174 111.915 32.174ZM123.488 28.618C123.488 28.8047 123.474 29.0473 123.446 29.346H118.07C118.108 30.2327 118.313 30.9233 118.686 31.418C119.06 31.9033 119.573 32.146 120.226 32.146C120.665 32.146 121.029 32.0573 121.318 31.88C121.617 31.7027 121.906 31.3947 122.186 30.956C122.261 30.8533 122.364 30.802 122.494 30.802C122.709 30.802 122.989 30.928 123.334 31.18C123.092 31.796 122.7 32.2767 122.158 32.622C121.617 32.9673 120.973 33.14 120.226 33.14C119.508 33.14 118.882 32.9813 118.35 32.664C117.828 32.3373 117.426 31.8753 117.146 31.278C116.866 30.6713 116.726 29.9573 116.726 29.136C116.726 27.8947 117.039 26.924 117.664 26.224C118.299 25.5147 119.172 25.16 120.282 25.16C121.3 25.16 122.088 25.4633 122.648 26.07C123.208 26.6767 123.488 27.526 123.488 28.618ZM122.13 28.45C122.13 26.91 121.5 26.14 120.24 26.14C119.615 26.14 119.12 26.336 118.756 26.728C118.392 27.12 118.173 27.694 118.098 28.45H122.13Z" fill="#1E7B9D"/>
</svg>
