<svg width="136" height="56" viewBox="0 0 136 56" fill="none" xmlns="http://www.w3.org/2000/svg">
<rect x="0.5" y="0.5" width="134.164" height="55" rx="15.5" fill="#FCFFFF"/>
<rect x="0.5" y="0.5" width="134.164" height="55" rx="15.5" stroke="#767B7C"/>
<path d="M49.0909 20.7273H46.1818V14.9091C46.1818 14.1376 45.8753 13.3976 45.3298 12.8521C44.7842 12.3065 44.0443 12 43.2727 12H28.7273C27.9557 12 27.2158 12.3065 26.6702 12.8521C26.1247 13.3976 25.8182 14.1376 25.8182 14.9091V17.8182H22.9091C22.1376 17.8182 21.3976 18.1247 20.8521 18.6702C20.3065 19.2158 20 19.9557 20 20.7273V26.5455C20 27.317 20.3065 28.0569 20.8521 28.6025C21.3976 29.1481 22.1376 29.4545 22.9091 29.4545H25.8182V41.0909C25.8182 41.8624 26.1247 42.6024 26.6702 43.1479C27.2158 43.6935 27.9557 44 28.7273 44H43.2727C44.0443 44 44.7842 43.6935 45.3298 43.1479C45.8753 42.6024 46.1818 41.8624 46.1818 41.0909V38.1818H49.0909C49.8624 38.1818 50.6024 37.8753 51.1479 37.3298C51.6935 36.7842 52 36.0443 52 35.2727V23.6364C52 22.8648 51.6935 22.1249 51.1479 21.5793C50.6024 21.0338 49.8624 20.7273 49.0909 20.7273ZM43.2727 41.0909H28.7273V29.4545H31.6364C32.4079 29.4545 33.1478 29.1481 33.6934 28.6025C34.239 28.0569 34.5455 27.317 34.5455 26.5455V20.7273C34.5455 19.9557 34.239 19.2158 33.6934 18.6702C33.1478 18.1247 32.4079 17.8182 31.6364 17.8182H28.7273V14.9091H43.2727V20.7273H40.3636C39.5921 20.7273 38.8522 21.0338 38.3066 21.5793C37.761 22.1249 37.4545 22.8648 37.4545 23.6364V35.2727C37.4545 36.0443 37.761 36.7842 38.3066 37.3298C38.8522 37.8753 39.5921 38.1818 40.3636 38.1818H43.2727V41.0909ZM49.0909 35.2727H40.3636V23.6364H49.0909V35.2727Z" fill="#1E7B9D"/>
<path d="M115.79 31.9956C114.688 31.9956 113.853 31.655 113.284 30.9736C112.714 30.2923 112.43 29.2983 112.43 27.9916C112.43 26.685 112.714 25.6956 113.284 25.0236C113.853 24.3516 114.688 24.0156 115.79 24.0156C116.891 24.0156 117.726 24.3516 118.296 25.0236C118.874 25.6956 119.164 26.685 119.164 27.9916C119.164 29.2983 118.874 30.2923 118.296 30.9736C117.726 31.655 116.891 31.9956 115.79 31.9956ZM115.79 31.0296C116.49 31.0296 116.998 30.787 117.316 30.3016C117.642 29.8163 117.806 29.0463 117.806 27.9916C117.806 26.9463 117.642 26.1856 117.316 25.7096C116.998 25.2243 116.49 24.9816 115.79 24.9816C115.09 24.9816 114.576 25.2243 114.25 25.7096C113.932 26.1856 113.774 26.9463 113.774 27.9916C113.774 29.0463 113.937 29.8163 114.264 30.3016C114.59 30.787 115.099 31.0296 115.79 31.0296Z" fill="#1E7B9D"/>
<path d="M108.25 24.0156C109.276 24.0156 110.06 24.3516 110.602 25.0236C111.143 25.6956 111.414 26.671 111.414 27.9496C111.414 28.7616 111.269 29.4756 110.98 30.0916C110.69 30.6983 110.275 31.1696 109.734 31.5056C109.202 31.8323 108.576 31.9956 107.858 31.9956C107.214 31.9956 106.602 31.8836 106.024 31.6596V34.9776H104.694V26.8856C104.694 25.5323 104.605 24.7016 104.428 24.3936C104.605 24.3003 104.787 24.2303 104.974 24.1836C105.16 24.1276 105.324 24.0996 105.464 24.0996C105.772 24.0996 105.954 24.375 106.01 24.9256C106.635 24.319 107.382 24.0156 108.25 24.0156ZM107.76 31.0296C108.488 31.0296 109.048 30.7636 109.44 30.2316C109.841 29.6996 110.042 28.939 110.042 27.9496C110.042 26.951 109.878 26.209 109.552 25.7236C109.234 25.229 108.749 24.9816 108.096 24.9816C107.713 24.9816 107.34 25.0703 106.976 25.2476C106.612 25.425 106.294 25.6676 106.024 25.9756V30.6656C106.266 30.7776 106.537 30.8663 106.836 30.9316C107.144 30.997 107.452 31.0296 107.76 31.0296Z" fill="#1E7B9D"/>
<path d="M100.87 24.1594H102.186V31.8594H100.87V24.1594ZM101.458 22.7454C100.935 22.7454 100.674 22.4841 100.674 21.9614V21.8074C100.674 21.2848 100.935 21.0234 101.458 21.0234H101.598C102.12 21.0234 102.382 21.2848 102.382 21.8074V21.9614C102.382 22.4841 102.12 22.7454 101.598 22.7454H101.458Z" fill="#1E7B9D"/>
<path d="M99.0666 30.7845C99.1413 30.8218 99.202 30.8872 99.2486 30.9805C99.2953 31.0645 99.3186 31.1625 99.3186 31.2745C99.3186 31.4612 99.2486 31.5965 99.1086 31.6805C98.9686 31.7832 98.7726 31.8625 98.5206 31.9185C98.278 31.9745 98.012 32.0025 97.7226 32.0025C97.0973 32.0025 96.598 31.8345 96.2246 31.4985C95.8513 31.1532 95.6646 30.6958 95.6646 30.1265V25.1005H94.3066V24.1625H95.6646V22.0625H96.9946V24.1625H98.8286V25.1005H96.9946V29.9445C96.9946 30.3178 97.0693 30.5932 97.2186 30.7705C97.368 30.9385 97.5966 31.0225 97.9046 31.0225C98.278 31.0225 98.6653 30.9432 99.0666 30.7845Z" fill="#1E7B9D"/>
<path d="M90.2506 31.9956C89.1493 31.9956 88.314 31.655 87.7446 30.9736C87.1753 30.2923 86.8906 29.2983 86.8906 27.9916C86.8906 26.685 87.1753 25.6956 87.7446 25.0236C88.314 24.3516 89.1493 24.0156 90.2506 24.0156C91.352 24.0156 92.1873 24.3516 92.7566 25.0236C93.3353 25.6956 93.6246 26.685 93.6246 27.9916C93.6246 29.2983 93.3353 30.2923 92.7566 30.9736C92.1873 31.655 91.352 31.9956 90.2506 31.9956ZM90.2506 31.0296C90.9506 31.0296 91.4593 30.787 91.7766 30.3016C92.1033 29.8163 92.2666 29.0463 92.2666 27.9916C92.2666 26.9463 92.1033 26.1856 91.7766 25.7096C91.4593 25.2243 90.9506 24.9816 90.2506 24.9816C89.5506 24.9816 89.0373 25.2243 88.7106 25.7096C88.3933 26.1856 88.2346 26.9463 88.2346 27.9916C88.2346 29.0463 88.398 29.8163 88.7246 30.3016C89.0513 30.787 89.56 31.0296 90.2506 31.0296Z" fill="#1E7B9D"/>
<path d="M85.928 30.7845C86.0026 30.8218 86.0633 30.8872 86.11 30.9805C86.1566 31.0645 86.18 31.1625 86.18 31.2745C86.18 31.4612 86.11 31.5965 85.97 31.6805C85.83 31.7832 85.634 31.8625 85.382 31.9185C85.1393 31.9745 84.8733 32.0025 84.584 32.0025C83.9586 32.0025 83.4593 31.8345 83.086 31.4985C82.7126 31.1532 82.526 30.6958 82.526 30.1265V25.1005H81.168V24.1625H82.526V22.0625H83.856V24.1625H85.69V25.1005H83.856V29.9445C83.856 30.3178 83.9306 30.5932 84.08 30.7705C84.2293 30.9385 84.458 31.0225 84.766 31.0225C85.1393 31.0225 85.5266 30.9432 85.928 30.7845Z" fill="#1E7B9D"/>
<path d="M77.112 31.9956C76.0106 31.9956 75.1753 31.655 74.606 30.9736C74.0366 30.2923 73.752 29.2983 73.752 27.9916C73.752 26.685 74.0366 25.6956 74.606 25.0236C75.1753 24.3516 76.0106 24.0156 77.112 24.0156C78.2133 24.0156 79.0486 24.3516 79.618 25.0236C80.1966 25.6956 80.486 26.685 80.486 27.9916C80.486 29.2983 80.1966 30.2923 79.618 30.9736C79.0486 31.655 78.2133 31.9956 77.112 31.9956ZM77.112 31.0296C77.812 31.0296 78.3206 30.787 78.638 30.3016C78.9646 29.8163 79.128 29.0463 79.128 27.9916C79.128 26.9463 78.9646 26.1856 78.638 25.7096C78.3206 25.2243 77.812 24.9816 77.112 24.9816C76.412 24.9816 75.8986 25.2243 75.572 25.7096C75.2546 26.1856 75.096 26.9463 75.096 27.9916C75.096 29.0463 75.2593 29.8163 75.586 30.3016C75.9126 30.787 76.4213 31.0296 77.112 31.0296Z" fill="#1E7B9D"/>
<path d="M71.875 24.0625C72.6123 24.0625 72.981 24.3378 72.981 24.8885C72.981 25.1125 72.9203 25.2945 72.799 25.4345C72.5563 25.3132 72.239 25.2525 71.847 25.2525C71.231 25.2525 70.7456 25.4812 70.391 25.9385C70.0456 26.3865 69.873 27.0072 69.873 27.8005V31.8605H68.543V24.1605H69.873V25.4485C70.0783 25.0285 70.3583 24.6925 70.713 24.4405C71.077 24.1885 71.4643 24.0625 71.875 24.0625Z" fill="#1E7B9D"/>
<path d="M62.954 22.0625C64.2327 22.0625 65.1987 22.3285 65.852 22.8605C66.5147 23.3925 66.846 24.1765 66.846 25.2125C66.846 26.2672 66.5147 27.0698 65.852 27.6205C65.1893 28.1712 64.2233 28.4465 62.954 28.4465H61.386V31.8625H60V22.0625H62.954ZM62.912 27.3265C63.7987 27.3265 64.4427 27.1585 64.844 26.8225C65.2453 26.4865 65.446 25.9498 65.446 25.2125C65.446 24.4845 65.2453 23.9572 64.844 23.6305C64.4427 23.2945 63.7987 23.1265 62.912 23.1265H61.386V27.3265H62.912Z" fill="#1E7B9D"/>
</svg>
