<svg width="108" height="56" viewBox="0 0 108 56" fill="none" xmlns="http://www.w3.org/2000/svg">
<rect x="0.5" y="0.5" width="106.881" height="55" rx="15.5" fill="#FCFFFF"/>
<rect x="0.5" y="0.5" width="106.881" height="55" rx="15.5" stroke="#767B7C"/>
<path d="M41.8127 30.6641C41.9194 29.7841 41.9993 28.9041 41.9993 27.9974C41.9993 27.0907 41.9194 26.2107 41.8127 25.3307H46.3194C46.5327 26.1841 46.666 27.0774 46.666 27.9974C46.666 28.9174 46.5327 29.8107 46.3194 30.6641M39.4527 38.0774C40.2527 36.5974 40.866 34.9974 41.2927 33.3307H45.226C43.9342 35.5551 41.8848 37.2401 39.4527 38.0774ZM39.1194 30.6641H32.8793C32.746 29.7841 32.666 28.9041 32.666 27.9974C32.666 27.0907 32.746 26.1974 32.8793 25.3307H39.1194C39.2393 26.1974 39.3327 27.0907 39.3327 27.9974C39.3327 28.9041 39.2393 29.7841 39.1194 30.6641ZM35.9993 38.6107C34.8927 37.0107 33.9993 35.2374 33.4527 33.3307H38.546C37.9993 35.2374 37.106 37.0107 35.9993 38.6107ZM30.666 22.6641H26.7727C28.0512 20.4337 30.0991 18.746 32.5327 17.9174C31.7327 19.3974 31.1327 20.9974 30.666 22.6641ZM26.7727 33.3307H30.666C31.1327 34.9974 31.7327 36.5974 32.5327 38.0774C30.1042 37.2396 28.0591 35.5544 26.7727 33.3307ZM25.6793 30.6641C25.466 29.8107 25.3327 28.9174 25.3327 27.9974C25.3327 27.0774 25.466 26.1841 25.6793 25.3307H30.186C30.0793 26.2107 29.9993 27.0907 29.9993 27.9974C29.9993 28.9041 30.0793 29.7841 30.186 30.6641M35.9993 17.3707C37.106 18.9707 37.9993 20.7574 38.546 22.6641H33.4527C33.9993 20.7574 34.8927 18.9707 35.9993 17.3707ZM45.226 22.6641H41.2927C40.8754 21.0127 40.2574 19.4186 39.4527 17.9174C41.906 18.7574 43.946 20.4507 45.226 22.6641ZM35.9993 14.6641C28.626 14.6641 22.666 20.6641 22.666 27.9974C22.666 31.5336 24.0708 34.925 26.5713 37.4255C27.8094 38.6636 29.2792 39.6457 30.8969 40.3158C32.5146 40.9859 34.2484 41.3307 35.9993 41.3307C39.5356 41.3307 42.927 39.926 45.4274 37.4255C47.9279 34.925 49.3327 31.5336 49.3327 27.9974C49.3327 26.2464 48.9878 24.5126 48.3177 22.8949C47.6477 21.2773 46.6656 19.8074 45.4274 18.5693C44.1893 17.3312 42.7195 16.3491 41.1018 15.679C39.4841 15.0089 37.7503 14.6641 35.9993 14.6641Z" fill="#1E7B9D"/>
<path d="M88.6745 25.6246C89.6825 25.6246 90.4665 25.97 91.0265 26.6606C91.5959 27.3513 91.8805 28.308 91.8805 29.5306C91.8805 30.8 91.5912 31.7986 91.0125 32.5266C90.4339 33.2453 89.6405 33.6046 88.6325 33.6046C87.6899 33.6046 86.9479 33.292 86.4065 32.6666C86.3225 33.2173 86.1312 33.4926 85.8325 33.4926C85.4592 33.4926 85.1185 33.404 84.8105 33.2266C84.9319 33.012 85.0159 32.76 85.0625 32.4706C85.1092 32.172 85.1325 31.7706 85.1325 31.2666V22.3906H86.4765V26.3666C87.1112 25.872 87.8439 25.6246 88.6745 25.6246ZM88.5065 32.6106C89.1692 32.6106 89.6685 32.3493 90.0045 31.8266C90.3499 31.304 90.5225 30.5386 90.5225 29.5306C90.5225 28.5786 90.3499 27.8506 90.0045 27.3466C89.6592 26.8426 89.1599 26.5906 88.5065 26.5906C88.1332 26.5906 87.7692 26.6606 87.4145 26.8006C87.0692 26.9313 86.7565 27.1226 86.4765 27.3746V31.5466C86.9805 32.256 87.6572 32.6106 88.5065 32.6106Z" fill="#1E7B9D"/>
<path d="M83.3772 29.083C83.3772 29.2697 83.3632 29.5123 83.3352 29.811H77.9592C77.9966 30.6977 78.2019 31.3883 78.5752 31.883C78.9486 32.3683 79.4619 32.611 80.1152 32.611C80.5539 32.611 80.9179 32.5223 81.2072 32.345C81.5059 32.1677 81.7952 31.8597 82.0752 31.421C82.1499 31.3183 82.2526 31.267 82.3832 31.267C82.5979 31.267 82.8779 31.393 83.2232 31.645C82.9806 32.261 82.5886 32.7417 82.0472 33.087C81.5059 33.4323 80.8619 33.605 80.1152 33.605C79.3966 33.605 78.7712 33.4463 78.2392 33.129C77.7166 32.8023 77.3152 32.3403 77.0352 31.743C76.7552 31.1363 76.6152 30.4223 76.6152 29.601C76.6152 28.3597 76.9279 27.389 77.5532 26.689C78.1879 25.9797 79.0606 25.625 80.1712 25.625C81.1886 25.625 81.9772 25.9283 82.5372 26.535C83.0972 27.1417 83.3772 27.991 83.3772 29.083ZM82.0192 28.915C82.0192 27.375 81.3892 26.605 80.1292 26.605C79.5039 26.605 79.0092 26.801 78.6452 27.193C78.2812 27.585 78.0619 28.159 77.9872 28.915H82.0192Z" fill="#1E7B9D"/>
<path d="M75.746 23.6641C75.5407 25.2321 75.2653 26.7394 74.92 28.1861C74.5747 29.6327 74.066 31.3921 73.394 33.4641H71.868C71.2987 31.6161 70.8787 30.2021 70.608 29.2221C70.3467 28.2421 70.1273 27.2901 69.95 26.3661C69.7353 27.3927 69.488 28.4194 69.208 29.4461C68.928 30.4727 68.5313 31.8121 68.018 33.4641H66.492C65.82 31.5227 65.2973 29.8101 64.924 28.3261C64.5507 26.8421 64.2427 25.2881 64 23.6641H65.386C65.5633 25.0734 65.7873 26.3614 66.058 27.5281C66.3287 28.6947 66.73 30.1367 67.262 31.8541C67.6353 30.6874 67.9667 29.5534 68.256 28.4521C68.5547 27.3507 68.9467 25.7547 69.432 23.6641H70.398C71.1073 26.4267 71.5833 28.2561 71.826 29.1521C72.078 30.0387 72.3487 30.9347 72.638 31.8401C73.1513 30.1321 73.534 28.6994 73.786 27.5421C74.038 26.3847 74.2527 25.0921 74.43 23.6641H75.746Z" fill="#1E7B9D"/>
</svg>
